<svg id="Layer_1" data-name="Layer 1" xmlns="http://www.w3.org/2000/svg" viewBox="0 0 81.96 63.25"><defs><style>.cls-1{fill:#333;}</style></defs><title>beetle</title><path class="cls-1" d="M91,46.6a21.59,21.59,0,0,0-9.47-3.83,21.91,21.91,0,0,0-3.11-.22,21.18,21.18,0,0,0-8.12,1.62,22,22,0,0,0,2.61-10.42,1.53,1.53,0,1,0-3.06,0,19.1,19.1,0,0,1-7.25,15,11.67,11.67,0,0,1,.24-13.27h0a15.33,15.33,0,0,0,2-15.36,1.53,1.53,0,1,0-2.82,1.19,12.28,12.28,0,1,1-22.64,0,1.53,1.53,0,1,0-2.82-1.19,15.33,15.33,0,0,0,2,15.36h0a11.68,11.68,0,0,1,.24,13.27,19.1,19.1,0,0,1-7.25-15,1.53,1.53,0,1,0-3.06,0,22,22,0,0,0,2.61,10.42,21.19,21.19,0,0,0-8.12-1.62,21.92,21.92,0,0,0-3.11.22,21.6,21.6,0,0,0-9.47,3.83l-.7.5.07.86c0,.53.09,1,.15,1.39A21.62,21.62,0,0,0,31.27,67.79h.44A19.15,19.15,0,0,0,35,75.63l.57.79,1-.18a19.26,19.26,0,0,0,3.43-1,10.78,10.78,0,0,0,3.1,6.7,1.53,1.53,0,0,0,2.17-2.15A7.73,7.73,0,0,1,43,74.34s0-.07,0-.1a11.06,11.06,0,0,0,15.58,0s0,.07,0,.1a7.75,7.75,0,0,1-2.26,5.48A1.53,1.53,0,1,0,58.47,82a10.77,10.77,0,0,0,3.1-6.69,19.26,19.26,0,0,0,3.43,1l1,.18.57-.79a19.15,19.15,0,0,0,3.29-7.86h.44A21.62,21.62,0,0,0,91.52,49.35c.06-.42.11-.87.15-1.39l.07-.86ZM50.76,52.88A19,19,0,0,1,42,50.75a16.2,16.2,0,0,1,17.49,0A19,19,0,0,1,50.76,52.88Zm0-11.48a15.23,15.23,0,0,0,7.11-1.75,14.57,14.57,0,0,0,.42,7,19.21,19.21,0,0,0-4-1.18h0a19,19,0,0,0-7.14,0h0a19.23,19.23,0,0,0-4,1.18,14.56,14.56,0,0,0,.42-7A15.24,15.24,0,0,0,50.76,41.4ZM15.58,55.93a18.28,18.28,0,0,1-2.56-7c0-.11,0-.21,0-.32a18.22,18.22,0,0,1,7.41-2.79,18.62,18.62,0,0,1,2.67-.19,18.33,18.33,0,0,1,10.77,3.51,21,21,0,0,0-18.24,6.8Zm15.69,8.8a18.46,18.46,0,0,1-13.82-6.29,17.94,17.94,0,0,1,18.07-5.89,19.26,19.26,0,0,0-4.1,11.89c0,.1,0,.19,0,.29Zm3.21-.29h0a16.2,16.2,0,0,1,4.92-11.63,22,22,0,0,0,9.74,3.06c0,.46.06.93.06,1.39A16.25,16.25,0,0,1,36.94,73,16.11,16.11,0,0,1,34.48,64.44Zm16.28,9.94a8,8,0,0,1-5.52-2.2,19.36,19.36,0,0,0,4.64-5.58,7.35,7.35,0,0,1,1.76,0,19.35,19.35,0,0,0,4.64,5.58A8,8,0,0,1,50.76,74.38ZM64.58,73A16.25,16.25,0,0,1,52.29,57.27c0-.46,0-.93.07-1.39a22,22,0,0,0,9.74-3.06A16.2,16.2,0,0,1,67,64.44h0A16.12,16.12,0,0,1,64.58,73Zm5.67-8.3H70.1c0-.1,0-.19,0-.29A19.27,19.27,0,0,0,66,52.55a17.94,17.94,0,0,1,18.07,5.89A18.46,18.46,0,0,1,70.25,64.73ZM88.5,48.92a18.29,18.29,0,0,1-2.56,7,21,21,0,0,0-18.25-6.8,18.33,18.33,0,0,1,10.77-3.51,18.65,18.65,0,0,1,2.67.19,18.22,18.22,0,0,1,7.41,2.79Z" transform="translate(-9.78 -19.17)"/></svg>