<svg id="Layer_3" data-name="Layer 3" xmlns="http://www.w3.org/2000/svg" viewBox="0 0 48.5 62.2"><defs><style>.cls-1{fill:#333;}</style></defs><title>bridge</title><path class="cls-1" d="M65.67,46.47v9.1a4.43,4.43,0,0,1,0,.63.7.7,0,0,1-1.39,0,5.32,5.32,0,0,1,0-.57V30.78H57.83V55.54a3.83,3.83,0,0,1,0,.68.59.59,0,0,1-.72.55,1.47,1.47,0,0,1-.66-.58c-.09-.13,0-.37,0-.56V44.89h-.07c-.28,1.16-.52,2.35-.85,3.5s-.8,2.4-1.24,3.58a3.82,3.82,0,0,1-.62,1,1.46,1.46,0,0,1-2.49,0,6.89,6.89,0,0,1-.87-1.71,41.19,41.19,0,0,1-1.7-7.93c-.19-1.27-.34-2.55-.58-3.82V55.59a4.34,4.34,0,0,1,0,.51.72.72,0,0,1-1.44,0,5.47,5.47,0,0,1,0-.57V19.84H36.83V55.58c0,.9-.19,1.22-.74,1.21s-.71-.33-.71-1.19V39.34H35.3c-.25,1.13-.47,2.26-.74,3.38a33.86,33.86,0,0,1-3.05,8.52,11,11,0,0,1-4.61,4.89,5.85,5.85,0,0,1-1.27.46.64.64,0,0,1-.85-.47.66.66,0,0,1,.49-.89,7.9,7.9,0,0,0,4.42-3.71,28.45,28.45,0,0,0,3.38-8.75,75.51,75.51,0,0,0,2-13.37c.19-3.32.25-6.66.36-10,0-.82.23-1,1-1H47c.71,0,.92.25,1,.95.37,5.49.69,11,1.13,16.44A94.74,94.74,0,0,0,51,48.39c.21,1,.51,1.9.81,2.83a7.37,7.37,0,0,0,.61,1.15A8.31,8.31,0,0,0,53.11,51c.59-2,1.24-4,1.68-6.06.61-2.9,1.06-5.85,1.57-8.78a3.77,3.77,0,0,0,0-.67V30.25c0-.67.21-.9.87-.9q3.78,0,7.56,0c.61,0,.82.24.83.89,0,1.82,0,3.64.09,5.46a58.93,58.93,0,0,0,2.61,14.72,10.61,10.61,0,0,0,1.17,2.45,4.57,4.57,0,0,0,1.41,1.24c.46.31.68.57.51,1s-.6.53-1,.38a5,5,0,0,1-2.69-2.86,25.19,25.19,0,0,1-1.87-5.82l-.09-.32h-.09" transform="translate(-24.75 -18.35)"/><path class="cls-1" d="M65.67,63.89v6.88c0,.39,0,.78-.42,1s-.74-.08-1-.37l-2.58-2.58c-.43-.42-.48-.88-.16-1.18s.76-.26,1.19.19.94,1,1.4,1.52l.14-.12V64.44c-.17.15-.3.25-.41.37C61.88,66.74,60,68.68,58,70.6c-.32.31-.61.81-1.19.56s-.43-.79-.43-1.25c0-1.78,0-3.56,0-5.34v-.65H48v.66c0,3.11,0,6.22,0,9.33,0,.41,0,.81-.46,1s-.72-.12-1-.38l-3.75-3.73c-.07-.07-.14-.13-.2-.2-.35-.4-.37-.82,0-1.1a.69.69,0,0,1,1.05.08L46,72l.47.44V64.06l-.49.46-9.21,9.2c-.27.28-.53.5-.94.34s-.46-.54-.46-.94V63.89H25.86c-.18,0-.43.06-.55,0s-.5-.44-.52-.69.27-.47.48-.65.33,0,.5,0H72.28c.15,0,.37,0,.45,0s.47.47.48.72-.29.47-.51.62-.4.05-.61.05H65.67Zm-28.79.79v6.65c2.46-2.44,5-4.94,7.43-7.4H38.25a.71.71,0,0,1-.1.14c.59.56,1.21,1.08,1.74,1.68a1.07,1.07,0,0,1,.18.9c-.16.48-.73.52-1.16.09-.66-.64-1.29-1.31-2-2.06m22.2-.76-.11.16c.31.27.64.53.93.82a.73.73,0,1,1-1,1l-1-1v3.55l4.53-4.54Z" transform="translate(-24.75 -18.35)"/><path class="cls-1" d="M49,59.05H25.88c-.19,0-.44.07-.56,0s-.53-.44-.53-.68.29-.5.53-.66.44,0,.67,0H72c.13,0,.26,0,.39,0,.61,0,.89.27.87.74s-.31.68-.92.68Z" transform="translate(-24.75 -18.35)"/><path class="cls-1" d="M41.68,80.53H34.29c-.18,0-.43,0-.55,0s-.5-.46-.51-.7.28-.48.5-.64a1.2,1.2,0,0,1,.61-.06H49c.14,0,.27,0,.4,0,.45,0,.78.24.76.74s-.34.7-.8.7H41.68Z" transform="translate(-24.75 -18.35)"/><path class="cls-1" d="M41.73,75.52H47c.64,0,1,.24,1,.71S47.64,77,47,77H36.35c-.62,0-1-.27-1-.72s.33-.72.95-.72h5.4" transform="translate(-24.75 -18.35)"/><path class="cls-1" d="M61.05,76.8H56.17c-.63,0-.94-.26-.93-.73s.29-.69.91-.69H66c.61,0,.9.24.91.7s-.32.71-.95.72H61.05" transform="translate(-24.75 -18.35)"/><path class="cls-1" d="M61,73.78c-1.15,0-2.31,0-3.46,0-.23,0-.51,0-.67-.08a1.06,1.06,0,0,1-.43-.69c0-.22.3-.45.51-.64s.26,0,.39,0c2.46,0,4.92,0,7.38,0a1.14,1.14,0,0,1,.85.39c.32.48-.08,1-.76,1-1,0-1.9,0-2.84,0Z" transform="translate(-24.75 -18.35)"/><path class="cls-1" d="M41.51,27.3H38.22c-.61,0-.94-.27-.93-.74s.31-.7.91-.7h6.64c.62,0,1,.28.94.74s-.36.7-1,.7H41.51" transform="translate(-24.75 -18.35)"/><path class="cls-1" d="M41.52,49.82H38.23c-.62,0-.95-.26-.94-.73s.3-.71.91-.71q3.34,0,6.69,0c.58,0,.9.29.89.73s-.34.71-.92.71H41.52" transform="translate(-24.75 -18.35)"/><path class="cls-1" d="M41.56,36.7H38.21c-.62,0-.94-.27-.92-.74s.31-.68.92-.68h6.64c.6,0,1,.29.94.74s-.35.68-.94.68H41.56" transform="translate(-24.75 -18.35)"/><path class="cls-1" d="M41.5,39.49H38.21c-.61,0-.9-.23-.92-.69s.27-.73.87-.73h6.75c.58,0,.89.29.87.74s-.35.68-.94.68H41.5" transform="translate(-24.75 -18.35)"/><path class="cls-1" d="M41.5,30.07H38.14c-.56,0-.84-.25-.85-.69s.27-.71.83-.71c2.27,0,4.55,0,6.82,0,.55,0,.87.28.83.71s-.37.69-.86.69c-1.14,0-2.27,0-3.41,0" transform="translate(-24.75 -18.35)"/><path class="cls-1" d="M41.51,47.24H38.15c-.48,0-.82-.17-.86-.69s.27-.72.83-.72q3.41,0,6.82,0c.55,0,.84.27.84.71s-.31.69-.86.69H41.51" transform="translate(-24.75 -18.35)"/><path class="cls-1" d="M61,34.61h2c.52,0,.85.3.82.73a.72.72,0,0,1-.81.7q-2,0-4,0c-.54,0-.83-.29-.81-.74s.34-.69.8-.7h2" transform="translate(-24.75 -18.35)"/><path class="cls-1" d="M61,42.67H59c-.45,0-.78-.18-.81-.68s.24-.76.78-.77q2,0,4.08,0a.68.68,0,0,1,.76.74c0,.48-.32.7-.78.71H61" transform="translate(-24.75 -18.35)"/><path class="cls-1" d="M58.21,49.36c0-.49.31-.69.78-.68h2" transform="translate(-24.75 -18.35)"/><path class="cls-1" d="M61,48.68h2a.7.7,0,1,1,0,1.4" transform="translate(-24.75 -18.35)"/></svg>