<svg xmlns="http://www.w3.org/2000/svg" viewBox="0 0 28.13 37.51"><title>Asset 6</title><g id="Layer_2" data-name="Layer 2"><g id="Layer_10" data-name="Layer 10"><path d="M24.61,4.69H18.75a4.69,4.69,0,1,0-9.37,0H3.52A3.51,3.51,0,0,0,0,8.2V34a3.52,3.52,0,0,0,3.52,3.52H24.61A3.52,3.52,0,0,0,28.13,34V8.2a3.51,3.51,0,0,0-3.52-3.51M14.06,2.93a1.76,1.76,0,1,1-1.75,1.76,1.75,1.75,0,0,1,1.75-1.76M3.68,14.23a.59.59,0,0,1,0-.83l.83-.83a.59.59,0,0,1,.83,0L6.76,14l4.67-4.68a.6.6,0,0,1,.83,0l.83.83a.59.59,0,0,1,0,.83L7.18,16.88a.58.58,0,0,1-.42.17.59.59,0,0,1-.43-.17ZM7,31.06A1.76,1.76,0,1,1,8.79,29.3,1.75,1.75,0,0,1,7,31.06m0-7a1.76,1.76,0,1,1,1.76-1.76A1.75,1.75,0,0,1,7,24m16.41,5.86a.59.59,0,0,1-.58.59H12.31a.59.59,0,0,1-.59-.59V28.72a.59.59,0,0,1,.59-.59H22.86a.59.59,0,0,1,.58.59Zm0-7a.58.58,0,0,1-.58.58H12.31a.58.58,0,0,1-.59-.58V21.69a.58.58,0,0,1,.59-.59H22.86a.58.58,0,0,1,.58.59Zm0-7a.58.58,0,0,1-.58.59H12.31a.58.58,0,0,1-.59-.59V14.65a.58.58,0,0,1,.59-.58H22.86a.58.58,0,0,1,.58.58Z"/></g></g></svg>