<svg id="Layer_5" data-name="Layer 5" xmlns="http://www.w3.org/2000/svg" viewBox="0 0 29.28 64.37"><defs><style>.cls-1{fill:#333;}</style></defs><title>liberty</title><path class="cls-1" d="M49.66,68.19c-.37-.23-.64-.39-.91-.57A1.72,1.72,0,0,1,48,65.7Q49.53,60,51.06,54.35c.11-.43.28-.8.78-.84a.83.83,0,0,1,.79,1.13q-1.08,4-2.15,8a3.56,3.56,0,0,0-.1.45c.16-.1.25-.15.34-.22,1-.84,1.93-1.69,2.91-2.53a2.24,2.24,0,0,0,.81-1.81c0-3.77,0-7.53,0-11.3a3.84,3.84,0,0,0-2-3.64,30.58,30.58,0,0,1-6.67-4.26,10.16,10.16,0,0,1-3.45,2.71.84.84,0,0,0-.41.62c0,.2.26.44.47.56a2.83,2.83,0,0,0,.83.23.84.84,0,0,1,.74.91c0,1,0,2,0,3.2l2.27-2.3c.35-.35.68-.7,1-1a.84.84,0,0,1,1.21-.07.81.81,0,0,1-.09,1.21l-4.5,4.48a1.1,1.1,0,0,0-.36,1.3l1.33-1.3c.16-.15.31-.31.47-.45a.78.78,0,0,1,1.16-.06.81.81,0,0,1-.06,1.21c-.59.59-1.19,1.17-1.8,1.73a1.08,1.08,0,0,0-.37.84c-.08,2.19-.19,4.38-.29,6.57,0,.59-.37.94-.84.91s-.76-.39-.74-1c.09-2.13.19-4.27.25-6.4a1.56,1.56,0,0,0-.26-.83,2.68,2.68,0,0,1-.2-2.92,1.44,1.44,0,0,0,.18-.6c0-1.18,0-2.36,0-3.53a.49.49,0,0,0-.38-.55c-1.88-.69-2.27-2.3-1-3.79a.59.59,0,0,0,.11-.46c-1-3.09-.88-6.28-.87-9.47a.8.8,0,0,1,.79-.91c.47,0,.79.33.8.9,0,1.48-.07,3,.05,4.45s.43,2.82.66,4.22a1,1,0,0,0,.12.26,6.23,6.23,0,0,0,2.11-2.1c.47-.82,1-.88,1.61-.19l.66.7V35.54c-.52-.08-1-.26-1-.93,0-.45.34-.67,1.09-.76a.92.92,0,0,0-.14-1.42l-.07-.09c-.5-.62-.54-1.07-.12-1.41s.9-.23,1.35.42c.31.44.6.6,1,.25a1,1,0,0,0,.3-.47c.06-.28,0-.58.07-.86a.7.7,0,0,1,.76-.63.72.72,0,0,1,.75.64,2.42,2.42,0,0,1,0,.76c0,.34.11.48.43.62s.62.14.84-.21a2,2,0,0,1,.47-.52.78.78,0,0,1,1.14,1c-.19.28-.45.52-.62.81a1,1,0,0,0-.09.57c0,.46.33.58.75.53a2,2,0,0,1,.6,0c.4.07.72.27.73.73a.72.72,0,0,1-.7.8c-.36,0-.72,0-1.13.06,0,1,0,1.88,0,2.79a3.79,3.79,0,0,1-1.32,3.34c.18.1.31.18.45.24a5.54,5.54,0,0,1,3.4,5.4,4.5,4.5,0,0,0,1.09,3.06c.11.12.26.26.27.4,0,.3.08.71-.08.88s-.59.19-.9.24c-.09,0-.18-.08-.32-.15V54a2.85,2.85,0,0,0,.3-.24l4.06-4.37a.9.9,0,0,1,1.49-.1C63,50.18,64,51.06,65.06,52a2.54,2.54,0,0,1,.21,4c-1.43,1.54-2.85,3.08-4.3,4.6a2.54,2.54,0,0,1-3.36.38c-.48-.35-.63-.82-.37-1.21a.85.85,0,0,1,1.23-.14,1,1,0,0,0,1.36-.15q2.2-2.33,4.38-4.68a.9.9,0,0,0,0-1.4c-.95-.86-1.95-1.66-2.95-2.51-1.44,1.54-2.8,3.1-4.26,4.54A3,3,0,0,0,56,58a4.07,4.07,0,0,1-.84,3.11.89.89,0,0,0-.09.57q.28,4.47.59,8.93c.08,1.32.18,2.64.27,4,0,.16,0,.31,0,.49a2.48,2.48,0,0,1,2.28,1.36,13.75,13.75,0,0,1,.61,2.7h2.44c.61,0,1,.48.86,1a1.4,1.4,0,0,1-.62.58,1.48,1.48,0,0,1-.64,0H38.17q-.3,0-.6,0a.78.78,0,0,1,.07-1.55c.65,0,1.29,0,2,0,0-.39,0-.73,0-1.07a2.76,2.76,0,0,1,2.7-3c0-.38.09-.77.1-1.15a.5.5,0,0,0-.21-.34,1.84,1.84,0,0,1-.73-1.72c.08-1.08.15-2.17.23-3.25,0-.29,0-.48-.32-.63s-.49-.69-.2-1.23l2.41-4.49,3.24-6c.18-.35.4-.66.85-.65a.82.82,0,0,1,.6,1.3l-2.94,5.49c-.46.85-.85,1.74-1.38,2.53a5.33,5.33,0,0,0-.59,2.87c-.12,1.37-.2,2.74-.28,4.11,0,.49.15.62.51.39l6-4M44,75h.62c1.43,0,2.86,0,4.29,0,.22,0,.53,0,.65.16a1.24,1.24,0,0,1,.31.84c-.06.46-.47.58-.9.58H42.87a1.67,1.67,0,0,0-.75.06c-.31.17-.71.42-.79.71A7.33,7.33,0,0,0,41.21,79H57.12v-1c0-1-.39-1.44-1.44-1.45-.73,0-1.45,0-2.18,0a.77.77,0,0,1-.81-.77.8.8,0,0,1,.83-.82c.26,0,.53,0,.86,0-.28-4.18-.56-8.28-.83-12.49l-4.13,3.6.61.4a1.79,1.79,0,0,1,.11,3.26c-1.8,1.21-3.58,2.46-5.42,3.6A1.39,1.39,0,0,0,44,75m4.63-36.79c0,1.42,0,1.42,1,2.06a1.34,1.34,0,0,0,2.14-1.07,14.86,14.86,0,0,0,0-2.11,1.6,1.6,0,0,0-3.18,0c0,.37,0,.76,0,1.13m3.12-3.74A1.46,1.46,0,0,0,50.34,33a1.5,1.5,0,0,0-1.63,1.51,3.33,3.33,0,0,1,3.07,0" transform="translate(-36.86 -16.3)"/><path class="cls-1" d="M41.16,18.42A2.68,2.68,0,0,0,40,20a1.74,1.74,0,0,0,.19,1c.25.55.21,1-.2,1.24s-.86.1-1.18-.41a2.83,2.83,0,0,1,0-3.13,5.31,5.31,0,0,1,2.88-2.35.79.79,0,0,1,1.14.84,2.85,2.85,0,0,0,.41,1.8,3.11,3.11,0,0,1,.46,2.19,2.34,2.34,0,0,1-.33.84.72.72,0,0,1-1,.25.66.66,0,0,1-.37-.9,1.88,1.88,0,0,0-.2-1.71l-.62-1.26" transform="translate(-36.86 -16.3)"/><path class="cls-1" d="M43,29.71v-1.9c0-.6.27-.91.77-.91s.77.29.8.88c.14,2.13.27,4.26.41,6.38a10.27,10.27,0,0,0,.17,1.24c.1.67-.12,1.11-.62,1.18s-.89-.27-1-.93c-.21-2-.4-4-.6-5.94h0" transform="translate(-36.86 -16.3)"/><path class="cls-1" d="M41,23.55c.58,0,1.16,0,1.73,0a.81.81,0,0,1,.87.78.78.78,0,0,1-.8.79q-1.81,0-3.63,0a.79.79,0,0,1-.82-.77.83.83,0,0,1,.91-.8c.58,0,1.16,0,1.74,0" transform="translate(-36.86 -16.3)"/><path class="cls-1" d="M40.19,27.52c0-.31,0-.62.07-.92a.72.72,0,0,1,.81-.63.7.7,0,0,1,.72.68,10.6,10.6,0,0,1-.06,1.78c0,.42-.39.59-.8.57a.71.71,0,0,1-.72-.67,7.3,7.3,0,0,1,0-.81h0" transform="translate(-36.86 -16.3)"/><path class="cls-1" d="M48.91,47.74a1.15,1.15,0,0,1-1,1,.8.8,0,0,1-.79-.79,1.16,1.16,0,0,1,1-1,.79.79,0,0,1,.79.79" transform="translate(-36.86 -16.3)"/></svg>