<svg id="Layer_1" data-name="Layer 1" xmlns="http://www.w3.org/2000/svg" viewBox="0 0 334.69 222.29"><defs><style>.cls-1{fill:#e6e6e6;}.cls-2{fill:none;stroke:#fff;stroke-miterlimit:10;stroke-width:0.5px;}.cls-3{fill:#333;}</style></defs><title>map</title><path class="cls-1" d="M312.52,59.69l2.35-1.49a11.63,11.63,0,0,1,4.23-1.93c.49-.09.86-.65,1.36-.93.25-.15.65-.31.87,0s-.19.5-.37.62c-2.7,2.52-5.34,5.12-8.63,6.89-.31.19-.68.78-1,.28s-.72-1.08-.19-1.74,1.24-.93,1.37-1.73h0M319,57c-1-.44-1.36.52-2,.71a12.09,12.09,0,0,0-5.3,3.94.65.65,0,0,0-.06.78c.18.24.43,0,.62-.13A27.41,27.41,0,0,0,319,57" transform="translate(-0.36 -5.13)"/><path class="cls-2" d="M312.52,59.69l2.35-1.49a11.63,11.63,0,0,1,4.23-1.93c.49-.09.86-.65,1.36-.93.25-.15.65-.31.87,0s-.19.5-.37.62c-2.7,2.52-5.34,5.12-8.63,6.89-.31.19-.68.78-1,.28s-.72-1.08-.19-1.74,1.24-.93,1.37-1.73ZM319,57c-1-.44-1.36.52-2,.71a12.09,12.09,0,0,0-5.3,3.94.65.65,0,0,0-.06.78c.18.24.43,0,.62-.13A27.41,27.41,0,0,0,319,57Z" transform="translate(-0.36 -5.13)"/><path class="cls-1" d="M162.41,130.91c0,1.86.06,3.69,0,5.55a1.61,1.61,0,0,0,1,1.71c1.28.4,2.45,1.21,3.91,1.12a2,2,0,0,1,1.77.83A3.4,3.4,0,0,0,173,141.3a3.07,3.07,0,0,1,3.14.53c.87.65,1.83,1.21,3,.68.18-.06.46-.06.55.06,1.65,1.21,3.51.69,5.31.66a4.19,4.19,0,0,1,1.89.74,1.21,1.21,0,0,0,1.62-.15c1.27-1.18,2.67-2,4.53-1.49,0,0,.09,0,.12,0,1.86-1.15,3,.24,4.35,1.14,1,.72,1.92,1.34,3.22.44.69-.5.87.22,1,.84.37,1.86.18,3.75.49,5.64.41,2.49-.09,5.12,1.25,7.39a18.29,18.29,0,0,1,2.45,4.9A1.68,1.68,0,0,1,206,164c-1.06,1.89-.84,3.94-.78,6,.13,3,.13,3-2.57,4.46-.19.13-.44.22-.62.35-1.55.83-1.55.83-2.27-.69-.18-.43-.43-.87-1-.52s-1.65.21-1.43,1.27a2.13,2.13,0,0,1-1.33,2.79.75.75,0,0,0-.47.78c.28,1.58-1,2.17-1.89,2.91a4.92,4.92,0,0,1-3.2.81c-.37,0-.71-.09-1.08-.12-.87-.06-1.87-.25-1.4,1.24.19.53-.28.71-.74.62-1.18-.22-1.71.37-1.9,1.43s-.93,1-1.77,1c-1.77,0-1.8,0-1.11,1.55.34.81.18,1.24-.69,1.34-.65.06-.86.21-.49.86.8,1.37.65,1.87-.72,2.7s-1.33.87,0,1.68c.5.28.87.59.68,1.21-.52,1.71.44,3.13,1,4.53a14.08,14.08,0,0,1,.93,2.67c.19.75,0,1-.87,1a35.3,35.3,0,0,1-6.55-.86c-.9-.19-1.8-.38-2.66-.62a4.65,4.65,0,0,1-3-3c-.86-2.18-1.7-4.32-2.57-6.49a2.4,2.4,0,0,0-.87-1.27,15.14,15.14,0,0,1-4.62-5.46,51.12,51.12,0,0,0-5.12-7.58c-2.58-3.16-5.62-4.34-9.72-2.88-1.46.53-2.11,2-2.92,3.26-1.05,1.55-1,1.58-2.63.77-.84-.4-1.65-.84-2.49-1.21-.49-.22-.93-.68-1.52-.09-.24.25-.52-.06-.71-.22-.68-.53-1.3-1.09-2-1.55a4,4,0,0,1-2-3.26c-.34-2.89-2.05-5.09-3.73-7.29-.18-.19-.43-.47-.68-.47-1.43-.09-2-1.15-2.67-2.14a15.25,15.25,0,0,0-4.53-4.93.91.91,0,0,1-.53-1.09c.19-.62.72-.43,1.12-.43l18.28.93c.9.06,1.86.06,2.76.15.68.07,1-.15,1-.9,0-1.8.12-3.6.15-5.4q.28-13.5.53-27c0-.94.34-1.18,1.21-1.15,5.34.15,10.67.25,16,.34.71,0,.87.31.87.93,0,2,0,3.94,0,5.9Z" transform="translate(-0.36 -5.13)"/><path class="cls-2" d="M162.41,130.91c0,1.86.06,3.69,0,5.55a1.61,1.61,0,0,0,1,1.71c1.28.4,2.45,1.21,3.91,1.12a2,2,0,0,1,1.77.83A3.4,3.4,0,0,0,173,141.3a3.07,3.07,0,0,1,3.14.53c.87.65,1.83,1.21,3,.68.18-.06.46-.06.55.06,1.65,1.21,3.51.69,5.31.66a4.19,4.19,0,0,1,1.89.74,1.21,1.21,0,0,0,1.62-.15c1.27-1.18,2.67-2,4.53-1.49,0,0,.09,0,.12,0,1.86-1.15,3,.24,4.35,1.14,1,.72,1.92,1.34,3.22.44.69-.5.87.22,1,.84.37,1.86.18,3.75.49,5.64.41,2.49-.09,5.12,1.25,7.39a18.29,18.29,0,0,1,2.45,4.9A1.68,1.68,0,0,1,206,164c-1.06,1.89-.84,3.94-.78,6,.13,3,.13,3-2.57,4.46-.19.13-.44.22-.62.35-1.55.83-1.55.83-2.27-.69-.18-.43-.43-.87-1-.52s-1.65.21-1.43,1.27a2.13,2.13,0,0,1-1.33,2.79.75.75,0,0,0-.47.78c.28,1.58-1,2.17-1.89,2.91a4.92,4.92,0,0,1-3.2.81c-.37,0-.71-.09-1.08-.12-.87-.06-1.87-.25-1.4,1.24.19.53-.28.71-.74.62-1.18-.22-1.71.37-1.9,1.43s-.93,1-1.77,1c-1.77,0-1.8,0-1.11,1.55.34.81.18,1.24-.69,1.34-.65.06-.86.21-.49.86.8,1.37.65,1.87-.72,2.7s-1.33.87,0,1.68c.5.28.87.59.68,1.21-.52,1.71.44,3.13,1,4.53a14.08,14.08,0,0,1,.93,2.67c.19.75,0,1-.87,1a35.3,35.3,0,0,1-6.55-.86c-.9-.19-1.8-.38-2.66-.62a4.65,4.65,0,0,1-3-3c-.86-2.18-1.7-4.32-2.57-6.49a2.4,2.4,0,0,0-.87-1.27,15.14,15.14,0,0,1-4.62-5.46,51.12,51.12,0,0,0-5.12-7.58c-2.58-3.16-5.62-4.34-9.72-2.88-1.46.53-2.11,2-2.92,3.26-1.05,1.55-1,1.58-2.63.77-.84-.4-1.65-.84-2.49-1.21-.49-.22-.93-.68-1.52-.09-.24.25-.52-.06-.71-.22-.68-.53-1.3-1.09-2-1.55a4,4,0,0,1-2-3.26c-.34-2.89-2.05-5.09-3.73-7.29-.18-.19-.43-.47-.68-.47-1.43-.09-2-1.15-2.67-2.14a15.25,15.25,0,0,0-4.53-4.93.91.91,0,0,1-.53-1.09c.19-.62.72-.43,1.12-.43l18.28.93c.9.06,1.86.06,2.76.15.68.07,1-.15,1-.9,0-1.8.12-3.6.15-5.4q.28-13.5.53-27c0-.94.34-1.18,1.21-1.15,5.34.15,10.67.25,16,.34.71,0,.87.31.87.93,0,2,0,3.94,0,5.9Z" transform="translate(-0.36 -5.13)"/><path class="cls-1" d="M101,58.32c-1.21-1.92-2.14-.84-3.11.06-.34.31-.68.69-1.24.47a7.54,7.54,0,0,0-4.16,0,1.43,1.43,0,0,1-1.52-.5,11.3,11.3,0,0,0-1.3-1.21,1.92,1.92,0,0,1-.87-2.45,1.23,1.23,0,0,0-.06-1.06c-.81-1.39-.9-3-1.33-4.46-.19-.72-.5-1.15-1.31-1a4.34,4.34,0,0,1-1.08,0c-.87-.06-1.21-.49-.69-1.21A2,2,0,0,0,84.64,45c-.31-1.15.22-2.14.56-3.17a1.37,1.37,0,0,0-.5-1.77c-2.11-1.55-3.28-3.78-4.81-5.8a1.89,1.89,0,0,1-.37-1.24c.25-2.92-.34-5.9,1-8.66,0-.09,0-.18.07-.22.28-.62-.34-1.64.49-1.92a5.1,5.1,0,0,1,2.15.19c7.16,1.18,14.3,2.39,21.47,3.44,6.3.93,12.6,1.74,19,2.08,5.59.31,11.11.93,16.67,1.4.71.06.87.34.83,1-.12,2.42-.18,4.81-.27,7.23-.22,4.28-.47,8.56-.69,12.88-.15,2.39-.34,4.81-.46,7.2,0,.65-.37.68-.87.65-6.24-.59-12.48-1.21-18.71-1.77-5.93-.53-11.83-1.09-17.72-1.64-.75-.07-1.06.15-1,.86a11.49,11.49,0,0,1-.43,2.58" transform="translate(-0.36 -5.13)"/><path class="cls-2" d="M101,58.32c-1.21-1.92-2.14-.84-3.11.06-.34.31-.68.69-1.24.47a7.54,7.54,0,0,0-4.16,0,1.43,1.43,0,0,1-1.52-.5,11.3,11.3,0,0,0-1.3-1.21,1.92,1.92,0,0,1-.87-2.45,1.23,1.23,0,0,0-.06-1.06c-.81-1.39-.9-3-1.33-4.46-.19-.72-.5-1.15-1.31-1a4.34,4.34,0,0,1-1.08,0c-.87-.06-1.21-.49-.69-1.21A2,2,0,0,0,84.64,45c-.31-1.15.22-2.14.56-3.17a1.37,1.37,0,0,0-.5-1.77c-2.11-1.55-3.28-3.78-4.81-5.8a1.89,1.89,0,0,1-.37-1.24c.25-2.92-.34-5.9,1-8.66,0-.09,0-.18.07-.22.28-.62-.34-1.64.49-1.92a5.1,5.1,0,0,1,2.15.19c7.16,1.18,14.3,2.39,21.47,3.44,6.3.93,12.6,1.74,19,2.08,5.59.31,11.11.93,16.67,1.4.71.06.87.34.83,1-.12,2.42-.18,4.81-.27,7.23-.22,4.28-.47,8.56-.69,12.88-.15,2.39-.34,4.81-.46,7.2,0,.65-.37.68-.87.65-6.24-.59-12.48-1.21-18.71-1.77-5.93-.53-11.83-1.09-17.72-1.64-.75-.07-1.06.15-1,.86A11.49,11.49,0,0,1,101,58.32Z" transform="translate(-0.36 -5.13)"/><path class="cls-1" d="M143.88,129.17c-.18,9-.37,18.06-.52,27.09,0,.87-.22,1.21-1.18,1.15-6.21-.31-12.45-.53-18.65-.84-.62,0-1.28-.15-1.9-.19s-1.45-.09-1.55,1c-.09.62-.68.55-1.18.55-2.36,0-4.74,0-7.1-.12-1,0-1.52.16-1.56,1.33-.06,1.84-.15,1.8-1.92,1.68-1-.09-2-.12-3-.12-.84,0-1.15-.31-1.09-1.18.31-3.73.56-7.42.87-11.17.38-4.63.75-9.28,1.12-13.91.44-5.21.84-10.39,1.21-15.61.06-.86.56-.86,1.21-.86,3.82.12,7.6.71,11.39.93,4.31.24,8.66.37,13,.55,3.42.16,6.8.35,10.21.47.78,0,.81.43.81,1v8.2c0,.09-.06.09-.13.09" transform="translate(-0.36 -5.13)"/><path class="cls-2" d="M143.88,129.17c-.18,9-.37,18.06-.52,27.09,0,.87-.22,1.21-1.18,1.15-6.21-.31-12.45-.53-18.65-.84-.62,0-1.28-.15-1.9-.19s-1.45-.09-1.55,1c-.09.62-.68.55-1.18.55-2.36,0-4.74,0-7.1-.12-1,0-1.52.16-1.56,1.33-.06,1.84-.15,1.8-1.92,1.68-1-.09-2-.12-3-.12-.84,0-1.15-.31-1.09-1.18.31-3.73.56-7.42.87-11.17.38-4.63.75-9.28,1.12-13.91.44-5.21.84-10.39,1.21-15.61.06-.86.56-.86,1.21-.86,3.82.12,7.6.71,11.39.93,4.31.24,8.66.37,13,.55,3.42.16,6.8.35,10.21.47.78,0,.81.43.81,1v8.2C144,129.17,144,129.17,143.88,129.17Z" transform="translate(-0.36 -5.13)"/><path class="cls-1" d="M70.62,126.19c-3.36-4.59-6.61-9-9.84-13.44q-8-10.94-16-21.85a2.26,2.26,0,0,1-.49-2.07c1.46-6.37,2.85-12.73,4.22-19.09.22-1,.62-1.15,1.55-.93C60.19,71,70.37,73.09,80.51,75.17c1,.19,1.34.47,1.18,1.62-1.18,7.94-2.23,15.88-3.32,23.83-.83,6-1.67,12-2.48,18-.12.93-.5,1-1.21.84-2.42-.59-2.36-.53-3.41,1.7a4.57,4.57,0,0,0-.19,2.58,4.37,4.37,0,0,1-.46,2.45" transform="translate(-0.36 -5.13)"/><path class="cls-2" d="M70.62,126.19c-3.36-4.59-6.61-9-9.84-13.44q-8-10.94-16-21.85a2.26,2.26,0,0,1-.49-2.07c1.46-6.37,2.85-12.73,4.22-19.09.22-1,.62-1.15,1.55-.93C60.19,71,70.37,73.09,80.51,75.17c1,.19,1.34.47,1.18,1.62-1.18,7.94-2.23,15.88-3.32,23.83-.83,6-1.67,12-2.48,18-.12.93-.5,1-1.21.84-2.42-.59-2.36-.53-3.41,1.7a4.57,4.57,0,0,0-.19,2.58A4.37,4.37,0,0,1,70.62,126.19Z" transform="translate(-0.36 -5.13)"/><path class="cls-1" d="M149.59,104.71c0,4.32,0,8.69,0,13,0,1.18-.25,1.55-1.52,1.55-7.55.25-15.06-.5-22.6-.75-5.68-.18-11.35-.9-17-1.24-.9-.06-.9-.56-.87-1.21.28-3.35.52-6.7.87-10.08l1.11-12.48c.19-1.89.38-3.75.5-5.65.06-.9.62-.8,1.18-.74,3.88.28,7.76.56,11.64.87,5.3.37,10.55.71,15.85,1.12,3.64.27,7.27.65,10.9,1,.83.06.68.65.68,1.15-.13,4.25-.22,8.5-.34,12.75,0,.22,0,.5,0,.71a1.76,1.76,0,0,1-.38,0" transform="translate(-0.36 -5.13)"/><path class="cls-2" d="M149.59,104.71c0,4.32,0,8.69,0,13,0,1.18-.25,1.55-1.52,1.55-7.55.25-15.06-.5-22.6-.75-5.68-.18-11.35-.9-17-1.24-.9-.06-.9-.56-.87-1.21.28-3.35.52-6.7.87-10.08l1.11-12.48c.19-1.89.38-3.75.5-5.65.06-.9.62-.8,1.18-.74,3.88.28,7.76.56,11.64.87,5.3.37,10.55.71,15.85,1.12,3.64.27,7.27.65,10.9,1,.83.06.68.65.68,1.15-.13,4.25-.22,8.5-.34,12.75,0,.22,0,.5,0,.71A1.76,1.76,0,0,1,149.59,104.71Z" transform="translate(-0.36 -5.13)"/><path class="cls-1" d="M139.48,61.73c-.34,9-.65,17.51-.93,26,0,.71-.25.84-.93.81-8.41-.65-16.89-1.21-25.3-1.9-4.22-.31-8.34-1.21-12.5-1.76-.81-.13-.9-.47-.87-1.21.37-7.45,1.58-14.84,2.39-22.22a26.31,26.31,0,0,0,.59-4.63c-.06-.87.37-1.08,1.18-1,3.63.31,7.29.56,10.89.87l13.78,1.11c3.75.31,7.51.66,11.23,1,.53.06.72.24.65.77a18.08,18.08,0,0,0-.18,2.17" transform="translate(-0.36 -5.13)"/><path class="cls-2" d="M139.48,61.73c-.34,9-.65,17.51-.93,26,0,.71-.25.84-.93.81-8.41-.65-16.89-1.21-25.3-1.9-4.22-.31-8.34-1.21-12.5-1.76-.81-.13-.9-.47-.87-1.21.37-7.45,1.58-14.84,2.39-22.22a26.31,26.31,0,0,0,.59-4.63c-.06-.87.37-1.08,1.18-1,3.63.31,7.29.56,10.89.87l13.78,1.11c3.75.31,7.51.66,11.23,1,.53.06.72.24.65.77A18.08,18.08,0,0,0,139.48,61.73Z" transform="translate(-0.36 -5.13)"/><path class="cls-1" d="M72.23,46.25c.19.59-.34,1-1.06,1.21a1.81,1.81,0,0,0-1.42,1.95A13.94,13.94,0,0,1,69.53,51a1.64,1.64,0,0,1-1.06,1.49,2.61,2.61,0,0,0-.8,3.87c.34.44.56.84.21,1.28-1.73,2.6-1.45,5.68-2,8.59-.25,1.34-.4,2.7-.53,4-.12.87-.43,1.11-1.33.93A351.78,351.78,0,0,1,30,62.42c-1-.31-2.08-.59-3.13-.87-1.65-.5-2-1-1.8-2.73.18-1.49.49-2.92.74-4.38a2.28,2.28,0,0,1,.56-1.18,2.4,2.4,0,0,0,.78-2,1.8,1.8,0,0,1,.52-1.3c.87-1.21,1.71-2.54,2.7-3.69a5.92,5.92,0,0,0,1.34-3.88,2.2,2.2,0,0,1,.87-1.89A5.84,5.84,0,0,0,34,38c.86-1.84.9-3.85,1.55-5.72.25-.8.52-.89,1.15-.4a4.38,4.38,0,0,0,.68.5,4.83,4.83,0,0,1,3.07,5c-.06,1.11.53,1.49,1.58,1.11.47-.18.93-.18,1.4-.34a3.21,3.21,0,0,1,4,.93,1.36,1.36,0,0,0,1.74.34,2.49,2.49,0,0,1,2.42.22,5.88,5.88,0,0,0,3.44.84,5.47,5.47,0,0,1,3.05.53A1.46,1.46,0,0,0,59.41,41a2.86,2.86,0,0,1,2.45.16,2,2,0,0,0,2.33.12c.47-.31.93.1,1.34.31A7,7,0,0,0,70,42.71c.87-.09,1.83,1,2.08,2.14a5.41,5.41,0,0,1,.19,1.4" transform="translate(-0.36 -5.13)"/><path class="cls-2" d="M72.23,46.25c.19.59-.34,1-1.06,1.21a1.81,1.81,0,0,0-1.42,1.95A13.94,13.94,0,0,1,69.53,51a1.64,1.64,0,0,1-1.06,1.49,2.61,2.61,0,0,0-.8,3.87c.34.44.56.84.21,1.28-1.73,2.6-1.45,5.68-2,8.59-.25,1.34-.4,2.7-.53,4-.12.87-.43,1.11-1.33.93A351.78,351.78,0,0,1,30,62.42c-1-.31-2.08-.59-3.13-.87-1.65-.5-2-1-1.8-2.73.18-1.49.49-2.92.74-4.38a2.28,2.28,0,0,1,.56-1.18,2.4,2.4,0,0,0,.78-2,1.8,1.8,0,0,1,.52-1.3c.87-1.21,1.71-2.54,2.7-3.69a5.92,5.92,0,0,0,1.34-3.88,2.2,2.2,0,0,1,.87-1.89A5.84,5.84,0,0,0,34,38c.86-1.84.9-3.85,1.55-5.72.25-.8.52-.89,1.15-.4a4.38,4.38,0,0,0,.68.5,4.83,4.83,0,0,1,3.07,5c-.06,1.11.53,1.49,1.58,1.11.47-.18.93-.18,1.4-.34a3.21,3.21,0,0,1,4,.93,1.36,1.36,0,0,0,1.74.34,2.49,2.49,0,0,1,2.42.22,5.88,5.88,0,0,0,3.44.84,5.47,5.47,0,0,1,3.05.53A1.46,1.46,0,0,0,59.41,41a2.86,2.86,0,0,1,2.45.16,2,2,0,0,0,2.33.12c.47-.31.93.1,1.34.31A7,7,0,0,0,70,42.71c.87-.09,1.83,1,2.08,2.14A5.41,5.41,0,0,1,72.23,46.25Z" transform="translate(-0.36 -5.13)"/><path class="cls-1" d="M150.74,108c0-3.41,0-6.82,0-10.24,0-1,.25-1.36,1.34-1.4,12.13-.3,24.23-.68,36.34-1,1.55-.06,3.66,1.68,3.69,3.2a3.45,3.45,0,0,0,1.55,2.57,4,4,0,0,1,1.52,3.42c.12,3.94.4,7.85.65,11.79.06.71,0,1-.9,1.15-7.07.52-14.15,1.36-21.19,1.67-7.58.31-15.18.19-22.78.25-.59,0-.84-.15-.84-.84,0-3.5,0-7,0-10.49a2.28,2.28,0,0,1,.62-.06" transform="translate(-0.36 -5.13)"/><path class="cls-2" d="M150.74,108c0-3.41,0-6.82,0-10.24,0-1,.25-1.36,1.34-1.4,12.13-.3,24.23-.68,36.34-1,1.55-.06,3.66,1.68,3.69,3.2a3.45,3.45,0,0,0,1.55,2.57,4,4,0,0,1,1.52,3.42c.12,3.94.4,7.85.65,11.79.06.71,0,1-.9,1.15-7.07.52-14.15,1.36-21.19,1.67-7.58.31-15.18.19-22.78.25-.59,0-.84-.15-.84-.84,0-3.5,0-7,0-10.49A2.28,2.28,0,0,1,150.74,108Z" transform="translate(-0.36 -5.13)"/><path class="cls-1" d="M77.47,112.22c.53-4,1.09-7.79,1.59-11.57,1-7.36,2-14.68,3.07-22,.53-3.6-.25-3.2,3.44-2.58,4,.65,8.07,1.37,12.11,2,.87.15,1,.43.87,1.2-.19,1.71-.19,3.45-.41,5.16-.09.8.19,1,.93,1.14,3,.38,6,.87,9.06,1.21,1.18.16,1.46.53,1.31,1.77-.53,5-.9,10.09-1.37,15.09-.37,4.28-.77,8.53-1.18,12.81-.06.59-.12.93-.9.84Q92.18,115.08,78.34,113c-.62-.09-1-.25-.87-.78" transform="translate(-0.36 -5.13)"/><path class="cls-2" d="M77.47,112.22c.53-4,1.09-7.79,1.59-11.57,1-7.36,2-14.68,3.07-22,.53-3.6-.25-3.2,3.44-2.58,4,.65,8.07,1.37,12.11,2,.87.15,1,.43.87,1.2-.19,1.71-.19,3.45-.41,5.16-.09.8.19,1,.93,1.14,3,.38,6,.87,9.06,1.21,1.18.16,1.46.53,1.31,1.77-.53,5-.9,10.09-1.37,15.09-.37,4.28-.77,8.53-1.18,12.81-.06.59-.12.93-.9.84Q92.18,115.08,78.34,113C77.72,112.91,77.32,112.75,77.47,112.22Z" transform="translate(-0.36 -5.13)"/><path class="cls-1" d="M213.93,32.66l-5.71,4.15a2.66,2.66,0,0,0-1,.87c-.74,1.74-2.17,2.86-3.5,4.07a5.73,5.73,0,0,0-1.87,4.53,4.33,4.33,0,0,1-1.52,4,1.43,1.43,0,0,0-.24,2.21c.77,1.12,1.36,2.2.49,3.63-.49.77.93,3.13,1.86,3.35,1.71.47,3.29,1,4.07,2.79.06.13.16.28.22.25,1.39-.12,2,1.37,3.26,1.55.71.1.74.9.86,1.43s-.52.47-.83.53c-7.45,1.36-14.9,2.76-22.5,3.07a31.27,31.27,0,0,0-3.85.34c-1.12.19-1.3-.25-1.34-1.21-.06-2-.18-4-.24-6-.1-1.86-.19-3.69-.22-5.52,0-.84-.56-1.12-1.12-1.43a1.2,1.2,0,0,1-.65-1.46,14.18,14.18,0,0,0-.53-7.39,10.06,10.06,0,0,1-.43-4.15,9.15,9.15,0,0,0-2-5.65A2.82,2.82,0,0,1,176.5,35c0-1.89.22-3.78-.71-5.55-.25-.47,0-.65.46-.65a61.74,61.74,0,0,1,7.54-.19,27.83,27.83,0,0,1,8.41,1.52c1.86.75,3.54.34,5.31.34a2.78,2.78,0,0,1,1.74.38,2.27,2.27,0,0,0,2.23.49c.44-.18.75.22,1.09.41,1.3.62,2.57,1.58,4.16.59,0,0,.09-.07.12,0,2.23.94,4.56-.3,7.08.35" transform="translate(-0.36 -5.13)"/><path class="cls-2" d="M213.93,32.66l-5.71,4.15a2.66,2.66,0,0,0-1,.87c-.74,1.74-2.17,2.86-3.5,4.07a5.73,5.73,0,0,0-1.87,4.53,4.33,4.33,0,0,1-1.52,4,1.43,1.43,0,0,0-.24,2.21c.77,1.12,1.36,2.2.49,3.63-.49.77.93,3.13,1.86,3.35,1.71.47,3.29,1,4.07,2.79.06.13.16.28.22.25,1.39-.12,2,1.37,3.26,1.55.71.1.74.9.86,1.43s-.52.47-.83.53c-7.45,1.36-14.9,2.76-22.5,3.07a31.27,31.27,0,0,0-3.85.34c-1.12.19-1.3-.25-1.34-1.21-.06-2-.18-4-.24-6-.1-1.86-.19-3.69-.22-5.52,0-.84-.56-1.12-1.12-1.43a1.2,1.2,0,0,1-.65-1.46,14.18,14.18,0,0,0-.53-7.39,10.06,10.06,0,0,1-.43-4.15,9.15,9.15,0,0,0-2-5.65A2.82,2.82,0,0,1,176.5,35c0-1.89.22-3.78-.71-5.55-.25-.47,0-.65.46-.65a61.74,61.74,0,0,1,7.54-.19,27.83,27.83,0,0,1,8.41,1.52c1.86.75,3.54.34,5.31.34a2.78,2.78,0,0,1,1.74.38,2.27,2.27,0,0,0,2.23.49c.44-.18.75.22,1.09.41,1.3.62,2.57,1.58,4.16.59,0,0,.09-.07.12,0C209.08,33.25,211.41,32,213.93,32.66Z" transform="translate(-0.36 -5.13)"/><path class="cls-1" d="M88.12,55.16c-.4.89.18,1.52.87,2,.12.1.25.19.37.31a4.13,4.13,0,0,0,5.15,1.56,1.24,1.24,0,0,1,1.06.09,2.5,2.5,0,0,0,3.13-.68c.28-.28.62-.87,1.21-.5s1.15.78,1,1.61c-.21,1.71-.37,3.42-.58,5.12-.47,3.7-.94,7.39-1.37,11.08-.19,1.71-.16,1.71-1.86,1.46-10.18-1.55-20.27-3.57-30.38-5.59-.62-.12-1-.31-.87-1.11.52-3.32.93-6.67,1.39-10a7,7,0,0,1,1.15-2.6,1.68,1.68,0,0,0-.06-2c-1-1.55-.78-2.51.81-3.29A1.42,1.42,0,0,0,70,51.43c.06-.68.18-1.33.28-2a1.67,1.67,0,0,1,1-1.39c.53-.25,1.33-.31,1.36-1,.06-1.05.38-2.2-.28-3.16a2.77,2.77,0,0,1-.43-2.14c1-6.46,2-12.91,3-19.4.15-.87.34-1.43,1.46-1.05a13,13,0,0,0,2.7.52c.86.1,1,.56.86,1.31a1.59,1.59,0,0,1-.06.37c-1.24,3.1-.9,6.36-.9,9.62a1.88,1.88,0,0,0,.28,1.24c1.52,1.92,2.61,4.16,4.63,5.68a1.56,1.56,0,0,1,.55,2.17,4.48,4.48,0,0,0-.37,3,1,1,0,0,1-.37,1.18c-.71.56-.4,1.34-.22,2s.87.4,1.37.37c1.89-.15,2-.12,2.26,1.74a8.09,8.09,0,0,0,.9,3.07,2.92,2.92,0,0,1,.16,1.62" transform="translate(-0.36 -5.13)"/><path class="cls-2" d="M88.12,55.16c-.4.89.18,1.52.87,2,.12.1.25.19.37.31a4.13,4.13,0,0,0,5.15,1.56,1.24,1.24,0,0,1,1.06.09,2.5,2.5,0,0,0,3.13-.68c.28-.28.62-.87,1.21-.5s1.15.78,1,1.61c-.21,1.71-.37,3.42-.58,5.12-.47,3.7-.94,7.39-1.37,11.08-.19,1.71-.16,1.71-1.86,1.46-10.18-1.55-20.27-3.57-30.38-5.59-.62-.12-1-.31-.87-1.11.52-3.32.93-6.67,1.39-10a7,7,0,0,1,1.15-2.6,1.68,1.68,0,0,0-.06-2c-1-1.55-.78-2.51.81-3.29A1.42,1.42,0,0,0,70,51.43c.06-.68.18-1.33.28-2a1.67,1.67,0,0,1,1-1.39c.53-.25,1.33-.31,1.36-1,.06-1.05.38-2.2-.28-3.16a2.77,2.77,0,0,1-.43-2.14c1-6.46,2-12.91,3-19.4.15-.87.34-1.43,1.46-1.05a13,13,0,0,0,2.7.52c.86.1,1,.56.86,1.31a1.59,1.59,0,0,1-.06.37c-1.24,3.1-.9,6.36-.9,9.62a1.88,1.88,0,0,0,.28,1.24c1.52,1.92,2.61,4.16,4.63,5.68a1.56,1.56,0,0,1,.55,2.17,4.48,4.48,0,0,0-.37,3,1,1,0,0,1-.37,1.18c-.71.56-.4,1.34-.22,2s.87.4,1.37.37c1.89-.15,2-.12,2.26,1.74a8.09,8.09,0,0,0,.9,3.07A2.92,2.92,0,0,1,88.12,55.16Z" transform="translate(-0.36 -5.13)"/><path class="cls-1" d="M139.73,70.24c.24-5.59.52-11.17.74-16.73,0-1,.37-1.4,1.43-1.4,6.92-.09,13.81-.24,20.73-.4,5.06-.12,10.12-.19,15.17-.31,2-.06,2.39.37,1.8,2.33-.31,1-.18,1.58.81,2,.84.34,1,1,1.05,1.87.16,3.81.1,7.66.59,11.42a36.94,36.94,0,0,1-.09,6.14c0,.77-.25.84-.87.53a.25.25,0,0,0-.12-.07c-1.8,0-3.29-.86-4.84-1.58a1,1,0,0,0-.84,0,5.12,5.12,0,0,1-3.94-.15,11.83,11.83,0,0,0-3.94-.31c-8.82-.13-17.69-.22-26.5-.28-1.06,0-1.49-.22-1.25-1.34a7.14,7.14,0,0,0,0-1.67Z" transform="translate(-0.36 -5.13)"/><path class="cls-2" d="M139.73,70.24c.24-5.59.52-11.17.74-16.73,0-1,.37-1.4,1.43-1.4,6.92-.09,13.81-.24,20.73-.4,5.06-.12,10.12-.19,15.17-.31,2-.06,2.39.37,1.8,2.33-.31,1-.18,1.58.81,2,.84.34,1,1,1.05,1.87.16,3.81.1,7.66.59,11.42a36.94,36.94,0,0,1-.09,6.14c0,.77-.25.84-.87.53a.25.25,0,0,0-.12-.07c-1.8,0-3.29-.86-4.84-1.58a1,1,0,0,0-.84,0,5.12,5.12,0,0,1-3.94-.15,11.83,11.83,0,0,0-3.94-.31c-8.82-.13-17.69-.22-26.5-.28-1.06,0-1.49-.22-1.25-1.34a7.14,7.14,0,0,0,0-1.67Z" transform="translate(-0.36 -5.13)"/><path class="cls-1" d="M189.13,94.66c-4,.12-7.73.22-11.45.37-8.41.28-16.85.53-25.26.87-1,0-1.55-.15-1.49-1.33s-.13-2.64-.13-3.94c0-.75-.31-.94-1-1-3.32-.28-6.64-.62-9.93-.9-.65-.06-.87-.21-.84-.93.19-4,.28-8.1.44-12.16.06-1.74.06-1.77,1.77-1.77l28.64.34a5.27,5.27,0,0,1,1.43.22,6,6,0,0,0,3.75.28,2.72,2.72,0,0,1,2.64.8,2,2,0,0,0,1.58.59c2.21-.09,3.14.56,3.73,2.64a10.89,10.89,0,0,0,1,2.17c1.4,2.7,3,5.34,2.73,8.57a6.06,6.06,0,0,0,1.12,3.13c.37.62.77,1.21,1.27,2" transform="translate(-0.36 -5.13)"/><path class="cls-2" d="M189.13,94.66c-4,.12-7.73.22-11.45.37-8.41.28-16.85.53-25.26.87-1,0-1.55-.15-1.49-1.33s-.13-2.64-.13-3.94c0-.75-.31-.94-1-1-3.32-.28-6.64-.62-9.93-.9-.65-.06-.87-.21-.84-.93.19-4,.28-8.1.44-12.16.06-1.74.06-1.77,1.77-1.77l28.64.34a5.27,5.27,0,0,1,1.43.22,6,6,0,0,0,3.75.28,2.72,2.72,0,0,1,2.64.8,2,2,0,0,0,1.58.59c2.21-.09,3.14.56,3.73,2.64a10.89,10.89,0,0,0,1,2.17c1.4,2.7,3,5.34,2.73,8.57a6.06,6.06,0,0,0,1.12,3.13C188.23,93.23,188.63,93.82,189.13,94.66Z" transform="translate(-0.36 -5.13)"/><path class="cls-1" d="M198.6,143.47c-1-.68-2-1.3-2.95-1.95a1.27,1.27,0,0,0-1.46-.19,2.9,2.9,0,0,1-2.33.25,3,3,0,0,0-2.92,1,1.78,1.78,0,0,1-2.6.41c-1.34-.87-2.92-.37-4.41-.53-.19,0-.5.16-.56.06-1.55-1.3-3.82-.06-5.34-1.49a2.78,2.78,0,0,0-3-.49,3.2,3.2,0,0,1-3.81-1.21c-.22-.28-.44-.62-.87-.59a15.86,15.86,0,0,1-4.19-1,1.28,1.28,0,0,1-1.15-1.42c.06-3.85.06-7.73.19-11.55,0-1-.28-1.39-1.21-1.42-1.49,0-2.95,0-4.47-.07-3.91-.09-7.79-.18-11.67-.21-.84,0-1.12-.25-1.15-1.09-.09-2.11-.12-2.08,2-2.11,9-.09,17.9-.06,26.87-.28,4.41-.12,8.78-.65,13.22-1l8.16-.63c.69-.06,1,.1,1.24.87a86.58,86.58,0,0,1,2.3,13.47c.25,2.3.13,4.63.16,7,0,1.39,0,2.69,0,4.18" transform="translate(-0.36 -5.13)"/><path class="cls-2" d="M198.6,143.47c-1-.68-2-1.3-2.95-1.95a1.27,1.27,0,0,0-1.46-.19,2.9,2.9,0,0,1-2.33.25,3,3,0,0,0-2.92,1,1.78,1.78,0,0,1-2.6.41c-1.34-.87-2.92-.37-4.41-.53-.19,0-.5.16-.56.06-1.55-1.3-3.82-.06-5.34-1.49a2.78,2.78,0,0,0-3-.49,3.2,3.2,0,0,1-3.81-1.21c-.22-.28-.44-.62-.87-.59a15.86,15.86,0,0,1-4.19-1,1.28,1.28,0,0,1-1.15-1.42c.06-3.85.06-7.73.19-11.55,0-1-.28-1.39-1.21-1.42-1.49,0-2.95,0-4.47-.07-3.91-.09-7.79-.18-11.67-.21-.84,0-1.12-.25-1.15-1.09-.09-2.11-.12-2.08,2-2.11,9-.09,17.9-.06,26.87-.28,4.41-.12,8.78-.65,13.22-1l8.16-.63c.69-.06,1,.1,1.24.87a86.58,86.58,0,0,1,2.3,13.47c.25,2.3.13,4.63.16,7C198.6,140.68,198.6,142,198.6,143.47Z" transform="translate(-0.36 -5.13)"/><path class="cls-1" d="M209.18,89.6c2.42-.19,3.26.47,3.66,2.42a6.14,6.14,0,0,1,.15.72c0,2.11.75,3.59,3.08,3.91.77.09.93.8,1.21,1.36s.56,1.06.84,1.61.65,1.09,1.45.69a.84.84,0,0,1,1.09.28.87.87,0,0,1,0,1.21c-.78,1-.43,1.86.09,2.85a5.93,5.93,0,0,0,3.67,3.35,2,2,0,0,1,1.55,1.9c0,.4.21.77.24,1.18.07,1.17.66,1.67,1.84,1.76a2.15,2.15,0,0,1,1.55,2.58.6.6,0,0,1-.22.25c-2.33.62-2.14,2.79-2.67,4.47-.18.62,0,1.36-1.05,1.33s-1.77-.31-1.68-1.39c.09-1.4-.68-1.37-1.64-1.25q-12,1.35-24,2.74c-.84.09-1-.19-1.18-.87-.78-3-.68-6.06-.9-9.1s-.34-5.83-.5-8.75c0-.71-.53-1-.93-1.46-1.09-1-2.39-1.92-2.05-3.78.13-.53-.4-.87-.84-1.09-1.55-.81-2.32-2.23-3.16-3.66-.37-.62-.28-.9.53-1,6.67-.84,13.5-1.59,19.86-2.27" transform="translate(-0.36 -5.13)"/><path class="cls-2" d="M209.18,89.6c2.42-.19,3.26.47,3.66,2.42a6.14,6.14,0,0,1,.15.72c0,2.11.75,3.59,3.08,3.91.77.09.93.8,1.21,1.36s.56,1.06.84,1.61.65,1.09,1.45.69a.84.84,0,0,1,1.09.28.87.87,0,0,1,0,1.21c-.78,1-.43,1.86.09,2.85a5.93,5.93,0,0,0,3.67,3.35,2,2,0,0,1,1.55,1.9c0,.4.21.77.24,1.18.07,1.17.66,1.67,1.84,1.76a2.15,2.15,0,0,1,1.55,2.58.6.6,0,0,1-.22.25c-2.33.62-2.14,2.79-2.67,4.47-.18.62,0,1.36-1.05,1.33s-1.77-.31-1.68-1.39c.09-1.4-.68-1.37-1.64-1.25q-12,1.35-24,2.74c-.84.09-1-.19-1.18-.87-.78-3-.68-6.06-.9-9.1s-.34-5.83-.5-8.75c0-.71-.53-1-.93-1.46-1.09-1-2.39-1.92-2.05-3.78.13-.53-.4-.87-.84-1.09-1.55-.81-2.32-2.23-3.16-3.66-.37-.62-.28-.9.53-1C196,91,202.82,90.28,209.18,89.6Z" transform="translate(-0.36 -5.13)"/><path class="cls-1" d="M140.9,48.51c.25-5.77.53-11.54.78-17.34.09-1.93.12-1.93,2.08-1.9,4.62.1,9.22.41,13.87.28s9.13-.59,13.69-.87c.37,0,.71-.09,1.08-.09,2.58-.12,3.51.4,3.39,2.95a12.69,12.69,0,0,0,2.11,7.73,4.66,4.66,0,0,1,.62,3c-.25,2.23.56,4.34,1,6.48.4,1.8.25,2-1.52,2-10.4.18-20.79.4-31.19.59-1.77,0-3.53.06-5.3.12-.62,0-.87-.18-.78-.87s.09-1.36.12-2.08" transform="translate(-0.36 -5.13)"/><path class="cls-2" d="M140.9,48.51c.25-5.77.53-11.54.78-17.34.09-1.93.12-1.93,2.08-1.9,4.62.1,9.22.41,13.87.28s9.13-.59,13.69-.87c.37,0,.71-.09,1.08-.09,2.58-.12,3.51.4,3.39,2.95a12.69,12.69,0,0,0,2.11,7.73,4.66,4.66,0,0,1,.62,3c-.25,2.23.56,4.34,1,6.48.4,1.8.25,2-1.52,2-10.4.18-20.79.4-31.19.59-1.77,0-3.53.06-5.3.12-.62,0-.87-.18-.78-.87S140.87,49.23,140.9,48.51Z" transform="translate(-0.36 -5.13)"/><path class="cls-1" d="M47.5,14.29c7.57,1.86,15.11,3.66,22.68,5.52,1.18.28,2.33.59,3.51.87.68.15.87.43.77,1.18-.8,5-1.55,10.08-2.29,15.08-.19,1.4-.47,2.76-.62,4.16-.1.68-.28.9-1.06.93a8,8,0,0,1-5-1.21,1.37,1.37,0,0,0-1.68-.1c-.53.38-1,0-1.49-.15-1-.4-2-.81-3.1-.19a.44.44,0,0,1-.34.07c-2.52-.94-5.44.12-7.76-1.68a1.37,1.37,0,0,0-1.49,0,1.84,1.84,0,0,1-2.45-.59,2.3,2.3,0,0,0-2.89-.75,2.91,2.91,0,0,1-.93.19c-2.2.47-2.36.47-2.36-1.71a3.08,3.08,0,0,0-2.08-3.19A25.39,25.39,0,0,1,36,30.76c-.21-.18-.62-.34-.49-.62.46-.87.68-1.86,1.15-2.6.52-.94.83-1.56-.19-2.05A.9.9,0,0,1,36,24.18a8,8,0,0,0-.18-5.86A1.25,1.25,0,0,1,36,16.77c.56-.53,1-.19,1.52.06,2,1.12,4.29,1.89,6.15,3.26,1.21.87,1.21,1.12.22,2.17-.38.4-.38.68,0,1,1,.84.55,1.52-.19,2.18a4.68,4.68,0,0,0-.62.55c-.22.28-1,.53-.47,1s1.06.93,1.65.21c.87-1,2.39-1.64,2.2-3.38,0-.31.22-.49.5-.59a1.69,1.69,0,0,0,.74-2.79c-.28-.43-.4-.75-.06-1.18.12-.15.22-.47.16-.53-.66-.93-.25-1.61.28-2.48s-.66-1.06-.84-1.71a1.27,1.27,0,0,0,.28-.24" transform="translate(-0.36 -5.13)"/><path class="cls-2" d="M47.5,14.29c7.57,1.86,15.11,3.66,22.68,5.52,1.18.28,2.33.59,3.51.87.68.15.87.43.77,1.18-.8,5-1.55,10.08-2.29,15.08-.19,1.4-.47,2.76-.62,4.16-.1.68-.28.9-1.06.93a8,8,0,0,1-5-1.21,1.37,1.37,0,0,0-1.68-.1c-.53.38-1,0-1.49-.15-1-.4-2-.81-3.1-.19a.44.44,0,0,1-.34.07c-2.52-.94-5.44.12-7.76-1.68a1.37,1.37,0,0,0-1.49,0,1.84,1.84,0,0,1-2.45-.59,2.3,2.3,0,0,0-2.89-.75,2.91,2.91,0,0,1-.93.19c-2.2.47-2.36.47-2.36-1.71a3.08,3.08,0,0,0-2.08-3.19A25.39,25.39,0,0,1,36,30.76c-.21-.18-.62-.34-.49-.62.46-.87.68-1.86,1.15-2.6.52-.94.83-1.56-.19-2.05A.9.9,0,0,1,36,24.18a8,8,0,0,0-.18-5.86A1.25,1.25,0,0,1,36,16.77c.56-.53,1-.19,1.52.06,2,1.12,4.29,1.89,6.15,3.26,1.21.87,1.21,1.12.22,2.17-.38.4-.38.68,0,1,1,.84.55,1.52-.19,2.18a4.68,4.68,0,0,0-.62.55c-.22.28-1,.53-.47,1s1.06.93,1.65.21c.87-1,2.39-1.64,2.2-3.38,0-.31.22-.49.5-.59a1.69,1.69,0,0,0,.74-2.79c-.28-.43-.4-.75-.06-1.18.12-.15.22-.47.16-.53-.66-.93-.25-1.61.28-2.48s-.66-1.06-.84-1.71A1.27,1.27,0,0,0,47.5,14.29Z" transform="translate(-0.36 -5.13)"/><path class="cls-1" d="M260.94,151.76c-.62-1.55.12-3.32-.59-5a2.42,2.42,0,0,1,.22-2.29c.25-.4.43-.84.06-1.21-2-2.36-2.42-5.37-3.26-8.19a94,94,0,0,0-3.26-9.16c-.18-.49-.46-1,.41-1.18,4-.93,8-1.89,12-2.88.86-.19,1.14.09,1.11.83a1.65,1.65,0,0,0,1.12,1.68c.5.25,1.12.53,1.33,1a6.32,6.32,0,0,0,4.29,3.14,3.76,3.76,0,0,1,1.89,1.58c1,1.21,2,2.39,3.63,2.76a1.67,1.67,0,0,1,1.37,1.61,3,3,0,0,0,.8,1.71c1,1.15,2,2.33,3,3.42a.89.89,0,0,1,.19,1c-.44,2-.87,4-1.31,6.05a7.33,7.33,0,0,0,.38,2.7c.18,1.18-.44,1.73-1.59,1.39-1.39-.4-2,.07-2.11,1.56s-.06,1.45-1.64,1.39a38.71,38.71,0,0,0-5.28.37c-3.16.28-6.33.56-9.43.9a7,7,0,0,1-3.35-.77c-.5-.19-.47-.5-.34-.87a8.76,8.76,0,0,0,.37-1.49" transform="translate(-0.36 -5.13)"/><path class="cls-2" d="M260.94,151.76c-.62-1.55.12-3.32-.59-5a2.42,2.42,0,0,1,.22-2.29c.25-.4.43-.84.06-1.21-2-2.36-2.42-5.37-3.26-8.19a94,94,0,0,0-3.26-9.16c-.18-.49-.46-1,.41-1.18,4-.93,8-1.89,12-2.88.86-.19,1.14.09,1.11.83a1.65,1.65,0,0,0,1.12,1.68c.5.25,1.12.53,1.33,1a6.32,6.32,0,0,0,4.29,3.14,3.76,3.76,0,0,1,1.89,1.58c1,1.21,2,2.39,3.63,2.76a1.67,1.67,0,0,1,1.37,1.61,3,3,0,0,0,.8,1.71c1,1.15,2,2.33,3,3.42a.89.89,0,0,1,.19,1c-.44,2-.87,4-1.31,6.05a7.33,7.33,0,0,0,.38,2.7c.18,1.18-.44,1.73-1.59,1.39-1.39-.4-2,.07-2.11,1.56s-.06,1.45-1.64,1.39a38.71,38.71,0,0,0-5.28.37c-3.16.28-6.33.56-9.43.9a7,7,0,0,1-3.35-.77c-.5-.19-.47-.5-.34-.87A8.76,8.76,0,0,0,260.94,151.76Z" transform="translate(-0.36 -5.13)"/><path class="cls-1" d="M214.08,82.22c.9-.1,1.8.4,2.36-.19a8.71,8.71,0,0,0,2.23-3.26c.38-1-.21-2-1-2.82-1.58-1.83-1.55-1.87.78-2.3,3.72-.75,7.48-1.46,11.2-2.23,1.12-.25,1.58,0,1.68,1.11a1.72,1.72,0,0,0,.24.9c2.24,2.73,2,6.24,2.92,9.41.68,2.51,1.15,5.09,1.71,7.63a3.85,3.85,0,0,1,0,2,7.61,7.61,0,0,0-.13,4.62,4.74,4.74,0,0,1-.62,3.91,3.91,3.91,0,0,0-.56,2.39c.16,1.55-.49,3.07-.06,4.62.19.69-.43.87-.87,1.12-.65.31-1.15.71-1,1.55s-.25.81-.87.59-1-.18-1.52-.34c-.87-.28-1.33-.18-1.24.87,0,.4-.13.53-.56.53-1.12-.13-2.11-.25-2.11-1.71,0-.09-.06-.15-.06-.22a3.2,3.2,0,0,0-2.61-3.25c-1.92-.53-2.39-2.36-3.23-3.82-.28-.53.19-1,.44-1.46s.56-1,0-1.52-.78-1.21-1.65-.78a.69.69,0,0,1-1-.46,5.89,5.89,0,0,1-.44-.87A3.65,3.65,0,0,0,215,95.59a1.36,1.36,0,0,1-1.21-1.4c-.22-1.67-.49-3.32-.81-5a2.6,2.6,0,0,1,.69-2.42,2.83,2.83,0,0,0,.59-3.88c-.16-.13-.13-.37-.22-.68" transform="translate(-0.36 -5.13)"/><path class="cls-2" d="M214.08,82.22c.9-.1,1.8.4,2.36-.19a8.71,8.71,0,0,0,2.23-3.26c.38-1-.21-2-1-2.82-1.58-1.83-1.55-1.87.78-2.3,3.72-.75,7.48-1.46,11.2-2.23,1.12-.25,1.58,0,1.68,1.11a1.72,1.72,0,0,0,.24.9c2.24,2.73,2,6.24,2.92,9.41.68,2.51,1.15,5.09,1.71,7.63a3.85,3.85,0,0,1,0,2,7.61,7.61,0,0,0-.13,4.62,4.74,4.74,0,0,1-.62,3.91,3.91,3.91,0,0,0-.56,2.39c.16,1.55-.49,3.07-.06,4.62.19.69-.43.87-.87,1.12-.65.31-1.15.71-1,1.55s-.25.81-.87.59-1-.18-1.52-.34c-.87-.28-1.33-.18-1.24.87,0,.4-.13.53-.56.53-1.12-.13-2.11-.25-2.11-1.71,0-.09-.06-.15-.06-.22a3.2,3.2,0,0,0-2.61-3.25c-1.92-.53-2.39-2.36-3.23-3.82-.28-.53.19-1,.44-1.46s.56-1,0-1.52-.78-1.21-1.65-.78a.69.69,0,0,1-1-.46,5.89,5.89,0,0,1-.44-.87A3.65,3.65,0,0,0,215,95.59a1.36,1.36,0,0,1-1.21-1.4c-.22-1.67-.49-3.32-.81-5a2.6,2.6,0,0,1,.69-2.42,2.83,2.83,0,0,0,.59-3.88C214.14,82.77,214.17,82.53,214.08,82.22Z" transform="translate(-0.36 -5.13)"/><path class="cls-1" d="M231.92,51.4a4.85,4.85,0,0,1-1.18,2.73,2.85,2.85,0,0,0-.52,2.7,3,3,0,0,1-.47,2.73,1.11,1.11,0,0,0-.25,1c.56,2.58.47,5.31,1.52,7.83.69,1.67.19,2.17-1.55,2.51-4.25.87-8.47,1.74-12.72,2.51-1.77.31-3.2-.65-4.47-1.77-.37-.34-.22-.83-.22-1.24a18.88,18.88,0,0,0-.83-6c-.19-.59-.32-1.21-1.21-.87a.22.22,0,0,1-.13,0c-.84-.86-2.36-1-2.92-1.77-1.05-1.61-2.57-2.17-4.19-2.76-1.05-.4-1.92-2-1.42-3a2.8,2.8,0,0,0-.47-3.29,1.42,1.42,0,0,1,.19-2.2,4,4,0,0,0,1.36-4.28c-.24-1,.44-1.93.81-2.86.15-.34.53-.28.87-.31a7.78,7.78,0,0,0,4-.9c.53-.31.87-.09.9.47.13,1.09.78,1.27,1.71,1.15a3.4,3.4,0,0,1,2.61.71,6.58,6.58,0,0,0,4.4,1.3c2.49-.21,4.84.56,7.26.81a2.78,2.78,0,0,1,1.9,2,3.4,3.4,0,0,0,.68,1.24,2.83,2.83,0,0,1,.47,2.73c-.31,1.05-.07,2.17-.34,3.23a.37.37,0,0,0,.21.49.66.66,0,0,0,.72-.34c.77-1.09,1.55-2.2,2.26-3.29a15.15,15.15,0,0,0,.75-1.39.65.65,0,0,1,.24.15" transform="translate(-0.36 -5.13)"/><path class="cls-2" d="M231.92,51.4a4.85,4.85,0,0,1-1.18,2.73,2.85,2.85,0,0,0-.52,2.7,3,3,0,0,1-.47,2.73,1.11,1.11,0,0,0-.25,1c.56,2.58.47,5.31,1.52,7.83.69,1.67.19,2.17-1.55,2.51-4.25.87-8.47,1.74-12.72,2.51-1.77.31-3.2-.65-4.47-1.77-.37-.34-.22-.83-.22-1.24a18.88,18.88,0,0,0-.83-6c-.19-.59-.32-1.21-1.21-.87a.22.22,0,0,1-.13,0c-.84-.86-2.36-1-2.92-1.77-1.05-1.61-2.57-2.17-4.19-2.76-1.05-.4-1.92-2-1.42-3a2.8,2.8,0,0,0-.47-3.29,1.42,1.42,0,0,1,.19-2.2,4,4,0,0,0,1.36-4.28c-.24-1,.44-1.93.81-2.86.15-.34.53-.28.87-.31a7.78,7.78,0,0,0,4-.9c.53-.31.87-.09.9.47.13,1.09.78,1.27,1.71,1.15a3.4,3.4,0,0,1,2.61.71,6.58,6.58,0,0,0,4.4,1.3c2.49-.21,4.84.56,7.26.81a2.78,2.78,0,0,1,1.9,2,3.4,3.4,0,0,0,.68,1.24,2.83,2.83,0,0,1,.47,2.73c-.31,1.05-.07,2.17-.34,3.23a.37.37,0,0,0,.21.49.66.66,0,0,0,.72-.34c.77-1.09,1.55-2.2,2.26-3.29a15.15,15.15,0,0,0,.75-1.39A.65.65,0,0,1,231.92,51.4Z" transform="translate(-0.36 -5.13)"/><path class="cls-1" d="M284.62,151.39a5.5,5.5,0,0,1-.78,2,3.12,3.12,0,0,0,.87,3.73c.59.34.81.18.81-.47,0-.87-.5-1.67-.38-2.57.47.06.53.43.59.68.75,2.64,2.95,4.53,3.76,7.2.31,1,1.52,1.61,2.3,2.39.4.37.8.65-.1.93s-.28.84-.09,1.18c1.12,1.74,2.3,3.38,3.38,5.12,2.76,4.38,4.81,9,3.38,14.34-.4,1.46,0,2.91-.52,4.34-.19.53-.31,1.12-1.21,1-.56-.06-.81.72-1.24,1.06-.22.19-.47.37-.75.19s-.06-.41.06-.59c.28-.53-.12-.87-.49-1.09a6.31,6.31,0,0,1-2.61-2.73,1,1,0,0,0-1-.53,1.76,1.76,0,0,1-1.74-1.4,2.86,2.86,0,0,0-.68-1.24c-1.18-1.11-1.59-2.67-2.42-4-.19-.31-.31-1-.78-.62-.71.53-1,0-1.37-.37s-.83-.87-1.27-1.27a2.13,2.13,0,0,1-.77-2.83A1.38,1.38,0,0,0,280,174.1c-.52.13-.52-.21-.68-.46a5.49,5.49,0,0,1-.49-2.83,9.3,9.3,0,0,0-.87-4.43,3.1,3.1,0,0,0-1.68-1.59c-.62-.21-1.21-.59-1.89-.83a2.53,2.53,0,0,1-1.93-2.18c-.18-1.15-1.21-1.45-2-1.86-1.8-.87-3.57-.71-4.13.47a6,6,0,0,1-2.24,2.23,1.57,1.57,0,0,1-1.45.37.82.82,0,0,0-.38,0c-2.17.87-2.91-.8-3.81-2.11a1.38,1.38,0,0,0-1.83-.65,2.65,2.65,0,0,1-2.33.06,3.08,3.08,0,0,0-3.07.07,2,2,0,0,1-2.15-.07c-1.08-.65-1.7-.31-2.08.87-.15.47-.4.87-.86.87s-.38-.53-.47-.87c-.84-3.07-.84-3.07,2.3-3.82,3.69-.86,7.41-1.73,11.14-2.57a1.9,1.9,0,0,1,1.3-.09c2.92,1.55,5.9.49,8.84.31s5.68-.53,8.51-.84a3.89,3.89,0,0,1,2,.31c.93.4,1.25,0,1.21-.87a6.56,6.56,0,0,1,0-.87c.06-1.55.18-1.61,1.73-1.43a6.56,6.56,0,0,0,1.56-.18c.27.18.34.25.37.31" transform="translate(-0.36 -5.13)"/><path class="cls-2" d="M284.62,151.39a5.5,5.5,0,0,1-.78,2,3.12,3.12,0,0,0,.87,3.73c.59.34.81.18.81-.47,0-.87-.5-1.67-.38-2.57.47.06.53.43.59.68.75,2.64,2.95,4.53,3.76,7.2.31,1,1.52,1.61,2.3,2.39.4.37.8.65-.1.93s-.28.84-.09,1.18c1.12,1.74,2.3,3.38,3.38,5.12,2.76,4.38,4.81,9,3.38,14.34-.4,1.46,0,2.91-.52,4.34-.19.53-.31,1.12-1.21,1-.56-.06-.81.72-1.24,1.06-.22.19-.47.37-.75.19s-.06-.41.06-.59c.28-.53-.12-.87-.49-1.09a6.31,6.31,0,0,1-2.61-2.73,1,1,0,0,0-1-.53,1.76,1.76,0,0,1-1.74-1.4,2.86,2.86,0,0,0-.68-1.24c-1.18-1.11-1.59-2.67-2.42-4-.19-.31-.31-1-.78-.62-.71.53-1,0-1.37-.37s-.83-.87-1.27-1.27a2.13,2.13,0,0,1-.77-2.83A1.38,1.38,0,0,0,280,174.1c-.52.13-.52-.21-.68-.46a5.49,5.49,0,0,1-.49-2.83,9.3,9.3,0,0,0-.87-4.43,3.1,3.1,0,0,0-1.68-1.59c-.62-.21-1.21-.59-1.89-.83a2.53,2.53,0,0,1-1.93-2.18c-.18-1.15-1.21-1.45-2-1.86-1.8-.87-3.57-.71-4.13.47a6,6,0,0,1-2.24,2.23,1.57,1.57,0,0,1-1.45.37.82.82,0,0,0-.38,0c-2.17.87-2.91-.8-3.81-2.11a1.38,1.38,0,0,0-1.83-.65,2.65,2.65,0,0,1-2.33.06,3.08,3.08,0,0,0-3.07.07,2,2,0,0,1-2.15-.07c-1.08-.65-1.7-.31-2.08.87-.15.47-.4.87-.86.87s-.38-.53-.47-.87c-.84-3.07-.84-3.07,2.3-3.82,3.69-.86,7.41-1.73,11.14-2.57a1.9,1.9,0,0,1,1.3-.09c2.92,1.55,5.9.49,8.84.31s5.68-.53,8.51-.84a3.89,3.89,0,0,1,2,.31c.93.4,1.25,0,1.21-.87a6.56,6.56,0,0,1,0-.87c.06-1.55.18-1.61,1.73-1.43a6.56,6.56,0,0,0,1.56-.18C284.52,151.26,284.59,151.33,284.62,151.39Z" transform="translate(-0.36 -5.13)"/><path class="cls-1" d="M212.19,89.45c-2.36-1.06-4.75-.19-7.08.06-5.37.53-10.77,1.18-16.14,1.8-1,.12-1.55-.41-1.49-1.24a15.7,15.7,0,0,0-.93-5.65,10.33,10.33,0,0,0-1.49-2.92c-1.05-1.64-1.42-3.57-2.32-5.24-.5-.93.31-2,.09-3.08a6.74,6.74,0,0,1,0-1.55c0-1,.53-1.45,1.55-1.55,4-.34,8-.59,12-1.15,4.22-.52,8.41-1.33,12.57-2,2.14-.38,2.85.34,2.54,2.57s.19,3.2,2.45,4,2.8,2.91,4.1,4.4a1.06,1.06,0,0,1-.19,1.34,7.78,7.78,0,0,0-.77,1.08,2.19,2.19,0,0,1-2.58,1.27c-1-.18-1.39.32-.87,1.21a3,3,0,0,1-.62,4,2.34,2.34,0,0,0-.59,2.45.87.87,0,0,1-.21.22" transform="translate(-0.36 -5.13)"/><path class="cls-2" d="M212.19,89.45c-2.36-1.06-4.75-.19-7.08.06-5.37.53-10.77,1.18-16.14,1.8-1,.12-1.55-.41-1.49-1.24a15.7,15.7,0,0,0-.93-5.65,10.33,10.33,0,0,0-1.49-2.92c-1.05-1.64-1.42-3.57-2.32-5.24-.5-.93.31-2,.09-3.08a6.74,6.74,0,0,1,0-1.55c0-1,.53-1.45,1.55-1.55,4-.34,8-.59,12-1.15,4.22-.52,8.41-1.33,12.57-2,2.14-.38,2.85.34,2.54,2.57s.19,3.2,2.45,4,2.8,2.91,4.1,4.4a1.06,1.06,0,0,1-.19,1.34,7.78,7.78,0,0,0-.77,1.08,2.19,2.19,0,0,1-2.58,1.27c-1-.18-1.39.32-.87,1.21a3,3,0,0,1-.62,4,2.34,2.34,0,0,0-.59,2.45A.87.87,0,0,1,212.19,89.45Z" transform="translate(-0.36 -5.13)"/><path class="cls-1" d="M309,109a2.1,2.1,0,0,1-1.86,2.07,5.06,5.06,0,0,0-2.8,2.18,18.58,18.58,0,0,0-2.32,4c-.72,1.93-2.45,2.92-4,4-.38.28-.69-.13-1-.28-2-1.34-4-2.64-6-4a1.8,1.8,0,0,0-2-.28c-.65.28-1.4.41-2,.72-2.08,1-4.1,1.21-6.08-.25a1,1,0,0,0-.69-.22c-2.26.31-4.68-.19-6.79,1.18-.56.37-1.24.56-1.83.93-2.95,2-6.33,2.64-9.75,3.2-.53.09-1,.12-1.21-.44s.31-.71.65-.93A1.33,1.33,0,0,0,262,120c.28-1.83,1.74-2.6,3.08-3.44s3-1.61,3.26-3.57c.09-.62.65-.53,1.05-.5a1.54,1.54,0,0,0,1.92-1.17,1.43,1.43,0,0,1,1.56-1.06,1.93,1.93,0,0,0,1.95-2.2c-.18-1.49.44-2,1.8-2.49,10.06-3.22,20.05-6.51,30.07-9.8,1-.34,1.58-.72,1.74.9s-.09,2.42-1.74,2.88a1.18,1.18,0,0,1-1.11-.24c-.5-.41-.91-.19-1.28.18s-.09.71.1,1.06a2.65,2.65,0,0,1,.34.62c.28.9.71,1.08,1.58.56a2.36,2.36,0,0,1,2.2-.19c.69.31,1.21.31,1.4-.59,0-.22.12-.53.43-.53s.41.34.53.59a3.45,3.45,0,0,1-1.39,3.73c-.38.18-.78.37-1.12,0-.65-.59-1.18-.25-1.68.18a2,2,0,0,1-1.18.56,1,1,0,0,0-.87,1c0,.53.53.59,1,.69.18,0,.4,0,.59,0,.37.06.71.18.68.65s-.22.74-.75.74-1.21,0-1.11.72.8.87,1.52.84c1-.07,1.24-1.21,2.17-1.4a.42.42,0,0,1,.28.16" transform="translate(-0.36 -5.13)"/><path class="cls-2" d="M309,109a2.1,2.1,0,0,1-1.86,2.07,5.06,5.06,0,0,0-2.8,2.18,18.58,18.58,0,0,0-2.32,4c-.72,1.93-2.45,2.92-4,4-.38.28-.69-.13-1-.28-2-1.34-4-2.64-6-4a1.8,1.8,0,0,0-2-.28c-.65.28-1.4.41-2,.72-2.08,1-4.1,1.21-6.08-.25a1,1,0,0,0-.69-.22c-2.26.31-4.68-.19-6.79,1.18-.56.37-1.24.56-1.83.93-2.95,2-6.33,2.64-9.75,3.2-.53.09-1,.12-1.21-.44s.31-.71.65-.93A1.33,1.33,0,0,0,262,120c.28-1.83,1.74-2.6,3.08-3.44s3-1.61,3.26-3.57c.09-.62.65-.53,1.05-.5a1.54,1.54,0,0,0,1.92-1.17,1.43,1.43,0,0,1,1.56-1.06,1.93,1.93,0,0,0,1.95-2.2c-.18-1.49.44-2,1.8-2.49,10.06-3.22,20.05-6.51,30.07-9.8,1-.34,1.58-.72,1.74.9s-.09,2.42-1.74,2.88a1.18,1.18,0,0,1-1.11-.24c-.5-.41-.91-.19-1.28.18s-.09.71.1,1.06a2.65,2.65,0,0,1,.34.62c.28.9.71,1.08,1.58.56a2.36,2.36,0,0,1,2.2-.19c.69.31,1.21.31,1.4-.59,0-.22.12-.53.43-.53s.41.34.53.59a3.45,3.45,0,0,1-1.39,3.73c-.38.18-.78.37-1.12,0-.65-.59-1.18-.25-1.68.18a2,2,0,0,1-1.18.56,1,1,0,0,0-.87,1c0,.53.53.59,1,.69.18,0,.4,0,.59,0,.37.06.71.18.68.65s-.22.74-.75.74-1.21,0-1.11.72.8.87,1.52.84c1-.07,1.24-1.21,2.17-1.4A.42.42,0,0,1,309,109Z" transform="translate(-0.36 -5.13)"/><path class="cls-1" d="M242,160.63c.12,1-.28,1.46-1.12,1.53s-.87-.62-.93-1.21q-1-12.9-2-25.79c-.16-1.9-.31-3.85-.47-5.74a1.63,1.63,0,0,1,1.34-1.84c1.11-.3,2.17-.89,3.32-.18.28.18.71,0,1.05-.09,2.86-.66,5.71-1.24,8.53-2,1.18-.31,1.56.06,2,1.09a96.57,96.57,0,0,1,4.13,13.06,8.77,8.77,0,0,0,1.83,3.45,1,1,0,0,1,.09,1.49,1.25,1.25,0,0,0-.28,1.14c.53,1.74.34,3.57.62,5.34a3.91,3.91,0,0,1,.06,1.09c-.06,1.8-.15,1.89-1.89,2.32-4.13,1-8.25,2-12.38,3-1.52.37-1.52.37-1.18,1.89.19.74.31,1.49.53,2.23.09.38.18.72-.28.87a.74.74,0,0,1-.93-.31c-.37-.53-.78-1-1.18-1.55-.19-.22-.34-.65-.72-.53s-.09.56-.12.71" transform="translate(-0.36 -5.13)"/><path class="cls-2" d="M242,160.63c.12,1-.28,1.46-1.12,1.53s-.87-.62-.93-1.21q-1-12.9-2-25.79c-.16-1.9-.31-3.85-.47-5.74a1.63,1.63,0,0,1,1.34-1.84c1.11-.3,2.17-.89,3.32-.18.28.18.71,0,1.05-.09,2.86-.66,5.71-1.24,8.53-2,1.18-.31,1.56.06,2,1.09a96.57,96.57,0,0,1,4.13,13.06,8.77,8.77,0,0,0,1.83,3.45,1,1,0,0,1,.09,1.49,1.25,1.25,0,0,0-.28,1.14c.53,1.74.34,3.57.62,5.34a3.91,3.91,0,0,1,.06,1.09c-.06,1.8-.15,1.89-1.89,2.32-4.13,1-8.25,2-12.38,3-1.52.37-1.52.37-1.18,1.89.19.74.31,1.49.53,2.23.09.38.18.72-.28.87a.74.74,0,0,1-.93-.31c-.37-.53-.78-1-1.18-1.55-.19-.22-.34-.65-.72-.53S242.07,160.48,242,160.63Z" transform="translate(-0.36 -5.13)"/><path class="cls-1" d="M223.33,120c-.13,1.46.18,1.9,1.74,2,.93.09.9.37.77,1.21-.34,2-1.58,3.69-1.64,5.77a3.44,3.44,0,0,1-.78,1.74c-.53.81-1.12,1.55-.81,2.64.16.46-.21.84-.46,1.21a28.49,28.49,0,0,0-2.39,4.28,2.78,2.78,0,0,0,.06,2.42,5.85,5.85,0,0,1,.68,3c0,.75-.24,1.09-1,1.21-4.31.53-8.69,1.15-13,1.71a24.55,24.55,0,0,0-2.73.37c-1,.25-1.21-.19-1.31-1a22.1,22.1,0,0,0-.28-2.24c-.24-1.11-.9-1.46-1.89-.93s-1,.22-1-.62c0-3.35,0-6.73-.25-10.11-.19-2.89-.65-5.71-1.05-8.6-.25-1.89-.28-1.89,1.52-2.11,7.66-.87,15.29-1.68,23-2.55.5-.09,1-.24.84.56" transform="translate(-0.36 -5.13)"/><path class="cls-2" d="M223.33,120c-.13,1.46.18,1.9,1.74,2,.93.09.9.37.77,1.21-.34,2-1.58,3.69-1.64,5.77a3.44,3.44,0,0,1-.78,1.74c-.53.81-1.12,1.55-.81,2.64.16.46-.21.84-.46,1.21a28.49,28.49,0,0,0-2.39,4.28,2.78,2.78,0,0,0,.06,2.42,5.85,5.85,0,0,1,.68,3c0,.75-.24,1.09-1,1.21-4.31.53-8.69,1.15-13,1.71a24.55,24.55,0,0,0-2.73.37c-1,.25-1.21-.19-1.31-1a22.1,22.1,0,0,0-.28-2.24c-.24-1.11-.9-1.46-1.89-.93s-1,.22-1-.62c0-3.35,0-6.73-.25-10.11-.19-2.89-.65-5.71-1.05-8.6-.25-1.89-.28-1.89,1.52-2.11,7.66-.87,15.29-1.68,23-2.55C223,119.36,223.51,119.21,223.33,120Z" transform="translate(-0.36 -5.13)"/><path class="cls-1" d="M239.53,161.81c.46,1.18-.13,1.43-1.43,1.31-1.55-.16-2.73.8-3.94,1.61s-1.34.84-1.65-.62c0-.15,0-.43-.06-.46-1.4-.59-.74-1.93-1-2.92s-.66-1.43-1.8-1.27c-2.92.34-5.84.52-8.76.83-.93.1-1.21-.21-1.14-1.14a6.36,6.36,0,0,1,1.49-4.44,1.39,1.39,0,0,0,.52-1.18c-.46-2.14.31-4.32-.28-6.49s-.34-4.43-1.33-6.58c-.43-.93.37-1.89.84-2.79s1-1.74,1.55-2.57a3,3,0,0,0,.65-2.33c-.18-1.12,1.27-2.83,2.42-3,3.26-.53,6.49-1.06,9.75-1.55,1-.16,1.55.06,1.64,1.24.31,4.4.71,8.78,1.06,13.22.49,5.93.93,11.85,1.42,17.75,0,.34.07.74.1,1.36" transform="translate(-0.36 -5.13)"/><path class="cls-2" d="M239.53,161.81c.46,1.18-.13,1.43-1.43,1.31-1.55-.16-2.73.8-3.94,1.61s-1.34.84-1.65-.62c0-.15,0-.43-.06-.46-1.4-.59-.74-1.93-1-2.92s-.66-1.43-1.8-1.27c-2.92.34-5.84.52-8.76.83-.93.1-1.21-.21-1.14-1.14a6.36,6.36,0,0,1,1.49-4.44,1.39,1.39,0,0,0,.52-1.18c-.46-2.14.31-4.32-.28-6.49s-.34-4.43-1.33-6.58c-.43-.93.37-1.89.84-2.79s1-1.74,1.55-2.57a3,3,0,0,0,.65-2.33c-.18-1.12,1.27-2.83,2.42-3,3.26-.53,6.49-1.06,9.75-1.55,1-.16,1.55.06,1.64,1.24.31,4.4.71,8.78,1.06,13.22.49,5.93.93,11.85,1.42,17.75C239.46,160.79,239.5,161.19,239.53,161.81Z" transform="translate(-0.36 -5.13)"/><path class="cls-1" d="M299.61,56.33c2,0,4.37,2.39,4,4.23a15.5,15.5,0,0,0,.31,5.08c.12.72.65.72,1.18.84,2,.53,2.3,1.21,1.18,3a2.09,2.09,0,0,0-.25.44c-.53,2.23-2.23,2.88-4.19,3.53C294,76.13,286,78.68,278,81c-.93.28-1.28,0-1.55-.87-1.31-4.38-2.64-8.75-3.95-13.13a2.45,2.45,0,0,1,1.93-3.44c3.91-1.09,7.82-2.14,11.7-3.26,4.28-1.21,8.53-2.55,12.82-3.79.24-.09.49-.15.65-.22" transform="translate(-0.36 -5.13)"/><path class="cls-2" d="M299.61,56.33c2,0,4.37,2.39,4,4.23a15.5,15.5,0,0,0,.31,5.08c.12.72.65.72,1.18.84,2,.53,2.3,1.21,1.18,3a2.09,2.09,0,0,0-.25.44c-.53,2.23-2.23,2.88-4.19,3.53C294,76.13,286,78.68,278,81c-.93.28-1.28,0-1.55-.87-1.31-4.38-2.64-8.75-3.95-13.13a2.45,2.45,0,0,1,1.93-3.44c3.91-1.09,7.82-2.14,11.7-3.26,4.28-1.21,8.53-2.55,12.82-3.79C299.2,56.46,299.45,56.4,299.61,56.33Z" transform="translate(-0.36 -5.13)"/><path class="cls-1" d="M205.76,168.92a8.68,8.68,0,0,1,.81-5.09,1.21,1.21,0,0,0,0-1.05,14.24,14.24,0,0,0-2.17-4.53,6.62,6.62,0,0,1-1.31-3.79c-.09-1.71-.27-3.44-.49-5.15-.09-.84.18-1.09,1-1.21,5.21-.65,10.43-1.37,15.64-2.11,1-.16,1.58,0,1.68,1.21.09,1.43.77,2.82,0,4.25a.28.28,0,0,0,0,.22c.77,1.64-.34,2.79-1.12,4-.93,1.49-.43,3.23-.56,4.81-.06.53.59.4,1,.37,2.95-.28,5.93-.56,8.85-.87,1.55-.15,1.74,0,1.77,1.56,0,.86-.28,1.83,1,2.14.28.09.28.49.18.74-.15.47-.49.19-.71.13-.53-.13-1-.25-1.52-.41a1,1,0,0,0-1,0,1.79,1.79,0,0,1-1.68.38,1.1,1.1,0,0,0-1.18.49c-.31.5.19.72.4,1s.53.46.47.8c-.12,1.09.53,1.31,1.4,1.31a2,2,0,0,0,2.23-1.25c.09-.24-.06-.58.37-.62s.5.19.62.5c.5.87,1.12,1.27,2,.5a1.36,1.36,0,0,1,1.49-.19.49.49,0,0,1,.34.56c-.09.62-.59.62-1.05.78-1.06.3-1.21,1.21-.38,1.92a12,12,0,0,1,2.58,2.14c.28.43.53.84.09,1.27a.82.82,0,0,1-1.33,0,3.76,3.76,0,0,0-2.36-1.3,1.2,1.2,0,0,1-.84-.65,3.19,3.19,0,0,0-1.86-1.62c-.34-.15-.71-.62-1.05-.24a1,1,0,0,0,.09,1.42,2.7,2.7,0,0,1,.65,1.9c0,1.14-.47,1.58-1.55,1.27s-1.9-.28-2.55.81c-.43.68-2.11,0-2.32-.91a6.14,6.14,0,0,1-.1-2.38,3.49,3.49,0,0,0-1.58-3.26,1.21,1.21,0,0,0-1.46.18c-.34.44.13.81.34,1.18a4.18,4.18,0,0,0,.5.53c.4.4.78.93.4,1.37s-.8-.22-1.14-.47a3.67,3.67,0,0,0-2.52-.68c-.77.06-1.55.28-1.58,1.27,0,.78-.47.87-1.12.9a5.5,5.5,0,0,1-2.64-.62,5.19,5.19,0,0,0-4.53-.19,1.25,1.25,0,0,1-.68.19c-1.4.31-1.4.31-1.4-1.09Z" transform="translate(-0.36 -5.13)"/><path class="cls-2" d="M205.76,168.92a8.68,8.68,0,0,1,.81-5.09,1.21,1.21,0,0,0,0-1.05,14.24,14.24,0,0,0-2.17-4.53,6.62,6.62,0,0,1-1.31-3.79c-.09-1.71-.27-3.44-.49-5.15-.09-.84.18-1.09,1-1.21,5.21-.65,10.43-1.37,15.64-2.11,1-.16,1.58,0,1.68,1.21.09,1.43.77,2.82,0,4.25a.28.28,0,0,0,0,.22c.77,1.64-.34,2.79-1.12,4-.93,1.49-.43,3.23-.56,4.81-.06.53.59.4,1,.37,2.95-.28,5.93-.56,8.85-.87,1.55-.15,1.74,0,1.77,1.56,0,.86-.28,1.83,1,2.14.28.09.28.49.18.74-.15.47-.49.19-.71.13-.53-.13-1-.25-1.52-.41a1,1,0,0,0-1,0,1.79,1.79,0,0,1-1.68.38,1.1,1.1,0,0,0-1.18.49c-.31.5.19.72.4,1s.53.46.47.8c-.12,1.09.53,1.31,1.4,1.31a2,2,0,0,0,2.23-1.25c.09-.24-.06-.58.37-.62s.5.19.62.5c.5.87,1.12,1.27,2,.5a1.36,1.36,0,0,1,1.49-.19.49.49,0,0,1,.34.56c-.09.62-.59.62-1.05.78-1.06.3-1.21,1.21-.38,1.92a12,12,0,0,1,2.58,2.14c.28.43.53.84.09,1.27a.82.82,0,0,1-1.33,0,3.76,3.76,0,0,0-2.36-1.3,1.2,1.2,0,0,1-.84-.65,3.19,3.19,0,0,0-1.86-1.62c-.34-.15-.71-.62-1.05-.24a1,1,0,0,0,.09,1.42,2.7,2.7,0,0,1,.65,1.9c0,1.14-.47,1.58-1.55,1.27s-1.9-.28-2.55.81c-.43.68-2.11,0-2.32-.91a6.14,6.14,0,0,1-.1-2.38,3.49,3.49,0,0,0-1.58-3.26,1.21,1.21,0,0,0-1.46.18c-.34.44.13.81.34,1.18a4.18,4.18,0,0,0,.5.53c.4.4.78.93.4,1.37s-.8-.22-1.14-.47a3.67,3.67,0,0,0-2.52-.68c-.77.06-1.55.28-1.58,1.27,0,.78-.47.87-1.12.9a5.5,5.5,0,0,1-2.64-.62,5.19,5.19,0,0,0-4.53-.19,1.25,1.25,0,0,1-.68.19c-1.4.31-1.4.31-1.4-1.09Z" transform="translate(-0.36 -5.13)"/><path class="cls-1" d="M275.74,62c1-1.21,2.36-2.2,3.48-3.32a2.13,2.13,0,0,0-.16-3.54c-.53-.46-.18-2,.53-2.32,1.89-.66,3.6-1.8,5.83-1.49,1.56.18,2.58-1.28,3.82-2.05.93-.59,1.49-1.77,2.89-1.74.56,0,.84-1.27.28-1.8s-.87-1.21-.34-2-.1-1.18-.59-1.46c-.87-.44-.72-.84-.1-1.28A3.73,3.73,0,0,0,293,37.59a4.18,4.18,0,0,1,2.91-4.13c2.05-.83,4.13-1.55,6.15-2.45.93-.43,1.24-.12,1.52.78.34,1.21.84,2.42,1.21,3.63a4.83,4.83,0,0,0,1.67,2.82.9.9,0,0,1,.38.5c.87,3,2,5.83,2.39,9,.31,2.95.74,6,2.6,8.6A2.6,2.6,0,0,1,312,59a.89.89,0,0,1-1.18.68c-1.89-.27-3.79-.52-5.68-.74a1.58,1.58,0,0,1-1.05-.47A16.65,16.65,0,0,0,302.65,57a4.41,4.41,0,0,0-4.25-1.12c-7.14,2.11-14.34,4-21.54,6a6.14,6.14,0,0,1-.93.19c0,.06-.09,0-.19-.1" transform="translate(-0.36 -5.13)"/><path class="cls-2" d="M275.74,62c1-1.21,2.36-2.2,3.48-3.32a2.13,2.13,0,0,0-.16-3.54c-.53-.46-.18-2,.53-2.32,1.89-.66,3.6-1.8,5.83-1.49,1.56.18,2.58-1.28,3.82-2.05.93-.59,1.49-1.77,2.89-1.74.56,0,.84-1.27.28-1.8s-.87-1.21-.34-2-.1-1.18-.59-1.46c-.87-.44-.72-.84-.1-1.28A3.73,3.73,0,0,0,293,37.59a4.18,4.18,0,0,1,2.91-4.13c2.05-.83,4.13-1.55,6.15-2.45.93-.43,1.24-.12,1.52.78.34,1.21.84,2.42,1.21,3.63a4.83,4.83,0,0,0,1.67,2.82.9.9,0,0,1,.38.5c.87,3,2,5.83,2.39,9,.31,2.95.74,6,2.6,8.6A2.6,2.6,0,0,1,312,59a.89.89,0,0,1-1.18.68c-1.89-.27-3.79-.52-5.68-.74a1.58,1.58,0,0,1-1.05-.47A16.65,16.65,0,0,0,302.65,57a4.41,4.41,0,0,0-4.25-1.12c-7.14,2.11-14.34,4-21.54,6a6.14,6.14,0,0,1-.93.19C275.9,62.14,275.84,62,275.74,62Z" transform="translate(-0.36 -5.13)"/><path class="cls-1" d="M261,122.71c-5.86,1.31-11.3,2.55-16.69,3.79a5.48,5.48,0,0,1-2.92-.06c-1.21-.34-2.42.53-3.6.93-.22.09-.4.37-.72.34-3.56-.19-7,.9-10.48,1.27-.56.06-1.34.5-1.65-.15a1.83,1.83,0,0,1,.31-2c.62-.65.56-1.55.84-2.27.9-2.48,1-5.18,2.2-7.57a1.08,1.08,0,0,1,1-.68c1.21-.06,2.39-.19,3.6-.22a9.25,9.25,0,0,0,4.56-1.27c1.58-1,3.57-.93,5.33-1.27,7.67-1.52,15.4-2.67,23-4.41,2.45-.56,4.81-1.49,7.23-2.23.44-.16,1.12-.75,1.34-.13a2.24,2.24,0,0,1-.19,2.27,1.67,1.67,0,0,1-1.46.74,1.34,1.34,0,0,0-1.61,1.06,1.38,1.38,0,0,1-1.68,1,1.27,1.27,0,0,0-1.64,1.27,2.87,2.87,0,0,1-1.8,2.24,15.65,15.65,0,0,0-3.07,2.11,2.8,2.8,0,0,0-1.22,1.86,1.12,1.12,0,0,1-.58,1c-1.22.59-1.87,1.21-.13,2.39" transform="translate(-0.36 -5.13)"/><path class="cls-2" d="M261,122.71c-5.86,1.31-11.3,2.55-16.69,3.79a5.48,5.48,0,0,1-2.92-.06c-1.21-.34-2.42.53-3.6.93-.22.09-.4.37-.72.34-3.56-.19-7,.9-10.48,1.27-.56.06-1.34.5-1.65-.15a1.83,1.83,0,0,1,.31-2c.62-.65.56-1.55.84-2.27.9-2.48,1-5.18,2.2-7.57a1.08,1.08,0,0,1,1-.68c1.21-.06,2.39-.19,3.6-.22a9.25,9.25,0,0,0,4.56-1.27c1.58-1,3.57-.93,5.33-1.27,7.67-1.52,15.4-2.67,23-4.41,2.45-.56,4.81-1.49,7.23-2.23.44-.16,1.12-.75,1.34-.13a2.24,2.24,0,0,1-.19,2.27,1.67,1.67,0,0,1-1.46.74,1.34,1.34,0,0,0-1.61,1.06,1.38,1.38,0,0,1-1.68,1,1.27,1.27,0,0,0-1.64,1.27,2.87,2.87,0,0,1-1.8,2.24,15.65,15.65,0,0,0-3.07,2.11,2.8,2.8,0,0,0-1.22,1.86,1.12,1.12,0,0,1-.58,1C259.88,120.91,259.23,121.53,261,122.71Z" transform="translate(-0.36 -5.13)"/><path class="cls-1" d="M250.85,47c-.06.38-.09.65.16.87,2,2.05,1.27,4.25.31,6.39a5.72,5.72,0,0,0-.75,1.77c0,.5-.49,1.21.38,1.43s1.58.53,2.05-.53a6.91,6.91,0,0,1,.8-1.33,1.85,1.85,0,0,1,3.32.12c.81,2.11,2.14,4,2.27,6.43a4,4,0,0,1-1.21,3.47,6.52,6.52,0,0,0-1.37,1.68,1.05,1.05,0,0,0,0,1,2.05,2.05,0,0,1-1.4,2.89c-1.86.52-3.69,1-5.55,1.52-.19.06-.44.18-.59.09-2.08-.9-3.94.4-5.87.65a36.54,36.54,0,0,0-4,.87c-1.05.28-1.18-.06-.9-1a31.85,31.85,0,0,0,1-3.85,10.69,10.69,0,0,0-.8-6.58c-.56-1.3-2.21-2.23-1.49-4-1.24-1.89.06-3.76.12-5.62.13-2.6,2.17-4.25,4.22-5.68.53-.37,1.49-.59.62-1.67-.34-.47.19-1.12.62-1.55s.72,0,1.06.15a1,1,0,0,0,.56.19c2.08-.19,3.91.74,5.8,1.33.59.19,1.18.28.68.93" transform="translate(-0.36 -5.13)"/><path class="cls-2" d="M250.85,47c-.06.38-.09.65.16.87,2,2.05,1.27,4.25.31,6.39a5.72,5.72,0,0,0-.75,1.77c0,.5-.49,1.21.38,1.43s1.58.53,2.05-.53a6.91,6.91,0,0,1,.8-1.33,1.85,1.85,0,0,1,3.32.12c.81,2.11,2.14,4,2.27,6.43a4,4,0,0,1-1.21,3.47,6.52,6.52,0,0,0-1.37,1.68,1.05,1.05,0,0,0,0,1,2.05,2.05,0,0,1-1.4,2.89c-1.86.52-3.69,1-5.55,1.52-.19.06-.44.18-.59.09-2.08-.9-3.94.4-5.87.65a36.54,36.54,0,0,0-4,.87c-1.05.28-1.18-.06-.9-1a31.85,31.85,0,0,0,1-3.85,10.69,10.69,0,0,0-.8-6.58c-.56-1.3-2.21-2.23-1.49-4-1.24-1.89.06-3.76.12-5.62.13-2.6,2.17-4.25,4.22-5.68.53-.37,1.49-.59.62-1.67-.34-.47.19-1.12.62-1.55s.72,0,1.06.15a1,1,0,0,0,.56.19c2.08-.19,3.91.74,5.8,1.33C250.76,46.22,251.35,46.31,250.85,47Z" transform="translate(-0.36 -5.13)"/><path class="cls-1" d="M274.19,77.84a16.22,16.22,0,0,1-.53,5.62A2.06,2.06,0,0,1,272.48,85a12,12,0,0,0-1.58.84c-.9.46-1.36,1-.59,2,.53.75.4.87-.53.87a1.8,1.8,0,0,0-1.58,2.39c.19.65-1,2.58-1.64,2.67a.57.57,0,0,1-.59-.31c-.38-.81-1.43-.65-1.87-1.43-.18-.34-.59,0-.86.1A18.48,18.48,0,0,1,256,93a2.91,2.91,0,0,1-2.88-2.52c-1.24-5.27-2.48-10.52-3.79-15.79-.21-.93,0-1.31.9-1.49a40.42,40.42,0,0,0,4.19-1.12,4,4,0,0,1,3.48.19,1.58,1.58,0,0,0,1.18.15c.18-.06.46-.15.56-.06,2.14,1.74,3.63-.22,5.05-1.12a49.5,49.5,0,0,0,6-4.78c.72-.59.94-.43,1.18.41.65,2.26,1.4,4.53,2.05,6.79a35.48,35.48,0,0,1,.25,4.16" transform="translate(-0.36 -5.13)"/><path class="cls-2" d="M274.19,77.84a16.22,16.22,0,0,1-.53,5.62A2.06,2.06,0,0,1,272.48,85a12,12,0,0,0-1.58.84c-.9.46-1.36,1-.59,2,.53.75.4.87-.53.87a1.8,1.8,0,0,0-1.58,2.39c.19.65-1,2.58-1.64,2.67a.57.57,0,0,1-.59-.31c-.38-.81-1.43-.65-1.87-1.43-.18-.34-.59,0-.86.1A18.48,18.48,0,0,1,256,93a2.91,2.91,0,0,1-2.88-2.52c-1.24-5.27-2.48-10.52-3.79-15.79-.21-.93,0-1.31.9-1.49a40.42,40.42,0,0,0,4.19-1.12,4,4,0,0,1,3.48.19,1.58,1.58,0,0,0,1.18.15c.18-.06.46-.15.56-.06,2.14,1.74,3.63-.22,5.05-1.12a49.5,49.5,0,0,0,6-4.78c.72-.59.94-.43,1.18.41.65,2.26,1.4,4.53,2.05,6.79A35.48,35.48,0,0,1,274.19,77.84Z" transform="translate(-0.36 -5.13)"/><path class="cls-1" d="M244.15,102.08c1.55.62,1.71.56,2.79-.87.75-1,1.68-1.9,1.49-3.26-.06-.37.19-.5.53-.62,1.18-.44,2.27-1,3.45-1.43.77-.31,1-.71.55-1.46-.21-.43-.68-.93-.18-1.43s1.11-.06,1.52.19a4.49,4.49,0,0,0,3,.5c2-.34,4.06-.06,6-.93.68-.31,1.27.83,2,1.18,1.15.56,1.43,1.77,1.65,2.88a3.54,3.54,0,0,0,1.89,2.58,1.61,1.61,0,0,1,.19,3,4,4,0,0,0-2,3c0,.52-.46.83-.77,1.21a10.29,10.29,0,0,1-6.64,3.38c-7.11,1.18-14.22,2.57-21.29,3.88a2.68,2.68,0,0,0-1,.37c-1.86,1.27-3.94,1.37-6.08,1.55a1.09,1.09,0,0,1-1.33-1c0-.16-.09-.31-.13-.47-.34-2.57-.18-2.79,2.33-2.23.9.18,1.37,0,1.34-1a1.31,1.31,0,0,1,.93-1.4c1-.31,1.05-1,1-1.89-.19-1.9,0-2.08,1.77-2.58.15,0,.37-.16.46-.09,1.9,1.11,3.11-.53,4.57-1.15.18-.09.37-.34.62-.19,1.49.87,1.21-.25,1.24-1.08a5,5,0,0,0,.09-.59" transform="translate(-0.36 -5.13)"/><path class="cls-2" d="M244.15,102.08c1.55.62,1.71.56,2.79-.87.75-1,1.68-1.9,1.49-3.26-.06-.37.19-.5.53-.62,1.18-.44,2.27-1,3.45-1.43.77-.31,1-.71.55-1.46-.21-.43-.68-.93-.18-1.43s1.11-.06,1.52.19a4.49,4.49,0,0,0,3,.5c2-.34,4.06-.06,6-.93.68-.31,1.27.83,2,1.18,1.15.56,1.43,1.77,1.65,2.88a3.54,3.54,0,0,0,1.89,2.58,1.61,1.61,0,0,1,.19,3,4,4,0,0,0-2,3c0,.52-.46.83-.77,1.21a10.29,10.29,0,0,1-6.64,3.38c-7.11,1.18-14.22,2.57-21.29,3.88a2.68,2.68,0,0,0-1,.37c-1.86,1.27-3.94,1.37-6.08,1.55a1.09,1.09,0,0,1-1.33-1c0-.16-.09-.31-.13-.47-.34-2.57-.18-2.79,2.33-2.23.9.18,1.37,0,1.34-1a1.31,1.31,0,0,1,.93-1.4c1-.31,1.05-1,1-1.89-.19-1.9,0-2.08,1.77-2.58.15,0,.37-.16.46-.09,1.9,1.11,3.11-.53,4.57-1.15.18-.09.37-.34.62-.19,1.49.87,1.21-.25,1.24-1.08A5,5,0,0,0,244.15,102.08Z" transform="translate(-0.36 -5.13)"/><path class="cls-1" d="M235.52,102.36a26.51,26.51,0,0,1,1.21-2.55,1.92,1.92,0,0,0,.19-1.71,9,9,0,0,1-.12-5c.68-2.2-.44-4.25-.84-6.36-.53-2.92-1.21-5.81-1.9-8.69-.21-1-.18-1.55,1-1.68a.77.77,0,0,0,.46-.15c3-2.18,6.71-1.77,10-2.83,2.52-.8,2.58-.62,3.17,2q1.82,7.86,3.69,15.64a1.67,1.67,0,0,1-.18,1.58,1.29,1.29,0,0,0,0,1.49c.4.75.12,1.09-.56,1.37s-1.3.56-2,.86c-.15.07-.34.22-.43.19-1.89-.81-1.4.87-1.46,1.55-.12,1.56-1.21,2.39-2,3.45-.43.52-.87,0-1.24-.19s-.87-.53-.93.13a1.69,1.69,0,0,1-1.36,1.64,14,14,0,0,0-2.58,1.43,1.09,1.09,0,0,1-1.43,0c-.53-.5-1.08-.07-1.55.15-.74.34-1.12.25-1-.68a5.91,5.91,0,0,0-.07-1.61" transform="translate(-0.36 -5.13)"/><path class="cls-2" d="M235.52,102.36a26.51,26.51,0,0,1,1.21-2.55,1.92,1.92,0,0,0,.19-1.71,9,9,0,0,1-.12-5c.68-2.2-.44-4.25-.84-6.36-.53-2.92-1.21-5.81-1.9-8.69-.21-1-.18-1.55,1-1.68a.77.77,0,0,0,.46-.15c3-2.18,6.71-1.77,10-2.83,2.52-.8,2.58-.62,3.17,2q1.82,7.86,3.69,15.64a1.67,1.67,0,0,1-.18,1.58,1.29,1.29,0,0,0,0,1.49c.4.75.12,1.09-.56,1.37s-1.3.56-2,.86c-.15.07-.34.22-.43.19-1.89-.81-1.4.87-1.46,1.55-.12,1.56-1.21,2.39-2,3.45-.43.52-.87,0-1.24-.19s-.87-.53-.93.13a1.69,1.69,0,0,1-1.36,1.64,14,14,0,0,0-2.58,1.43,1.09,1.09,0,0,1-1.43,0c-.53-.5-1.08-.07-1.55.15-.74.34-1.12.25-1-.68A5.91,5.91,0,0,0,235.52,102.36Z" transform="translate(-0.36 -5.13)"/><path class="cls-1" d="M304.35,90.47c-1.42,0-1.55.53-.93,1.3.31.41.16.72-.18,1.06s-.81.49-.59.93.74.19,1.11.19a1.58,1.58,0,0,1,.87.31,1.85,1.85,0,0,0,2.05.18c.4-.18.78-.21.87.22s-.34.43-.62.53q-10.62,3.44-21.26,7-9.21,3-18.4,6c-.62.18-1.27.37-2,.56-.06-.56.31-.72.53-.93,1.05-.93,2.08-1.9,2.2-3.45.07-.71.78-1,1.28-1.36a2.11,2.11,0,0,0,1.14-2.08c-.06-.25-.06-.62.25-.75s.53.19.65.41c.78,1.14,2,1.52,3.17,2.07.65.35,1,.19,1.12-.52.12-1,.8-1.31,1.55-1.62,1-.43,1.95-.93,2.95-1.3a2.08,2.08,0,0,0,1.36-2,14.54,14.54,0,0,1,1.24-5.46c.69-1.3,1.37-2.54,2.83-3.13.28-.13.65-.28.68-.62.15-2.24,1.89-3.48,2.95-5.13.18-.31.53-.55.49-.93-.06-1.21.69-1.08,1.43-.8s1.46.18,1.71-.81.8-.9,1.49-.5,1.18.72,1.77,1.06c1,.65,1.67,1.46,1.21,2.79-.38,1,.25,1.49,1.08,1.58,1.34.19,2.52,1.22,4,.87.37-.09.59.35.86.59s.66.53.5.87c-.25.53-.59,0-.87-.06a1,1,0,0,0-1.21.56c-.25.46.22.62.53.84.56.46,1.27.93,2.23,1.61" transform="translate(-0.36 -5.13)"/><path class="cls-2" d="M304.35,90.47c-1.42,0-1.55.53-.93,1.3.31.41.16.72-.18,1.06s-.81.49-.59.93.74.19,1.11.19a1.58,1.58,0,0,1,.87.31,1.85,1.85,0,0,0,2.05.18c.4-.18.78-.21.87.22s-.34.43-.62.53q-10.62,3.44-21.26,7-9.21,3-18.4,6c-.62.18-1.27.37-2,.56-.06-.56.31-.72.53-.93,1.05-.93,2.08-1.9,2.2-3.45.07-.71.78-1,1.28-1.36a2.11,2.11,0,0,0,1.14-2.08c-.06-.25-.06-.62.25-.75s.53.19.65.41c.78,1.14,2,1.52,3.17,2.07.65.35,1,.19,1.12-.52.12-1,.8-1.31,1.55-1.62,1-.43,1.95-.93,2.95-1.3a2.08,2.08,0,0,0,1.36-2,14.54,14.54,0,0,1,1.24-5.46c.69-1.3,1.37-2.54,2.83-3.13.28-.13.65-.28.68-.62.15-2.24,1.89-3.48,2.95-5.13.18-.31.53-.55.49-.93-.06-1.21.69-1.08,1.43-.8s1.46.18,1.71-.81.8-.9,1.49-.5,1.18.72,1.77,1.06c1,.65,1.67,1.46,1.21,2.79-.38,1,.25,1.49,1.08,1.58,1.34.19,2.52,1.22,4,.87.37-.09.59.35.86.59s.66.53.5.87c-.25.53-.59,0-.87-.06a1,1,0,0,0-1.21.56c-.25.46.22.62.53.84C302.68,89.32,303.39,89.79,304.35,90.47Z" transform="translate(-0.36 -5.13)"/><path class="cls-1" d="M328.78,25.74c-.13-.19-.19-.38-.31-.53-.31-.31-.47-1-1.12-.56A1.06,1.06,0,0,0,327,26a2.85,2.85,0,0,1,.12.71,2.67,2.67,0,0,1-1,2.45c-.19.16-.53.31-.53.5,0,1.3-1.12,1.55-1.89,2.14-.53.37-1.15.71-.59,1.55.06.06,0,.25-.06.34-1.15,1.06-1.06,2.58-1.53,3.85-.3.87-.55.81-1.11.19a11.81,11.81,0,0,1-1.21-2.24c-1.52-3-3-6.11-4.56-9.12a1.52,1.52,0,0,1,.15-2.05,1.59,1.59,0,0,0,.47-2,.53.53,0,0,1,0-.55c1.11-1.52.71-3.2.49-4.78-.46-3.11.19-6,.81-9,.09-.38.16-.93.72-.5,1.36,1.15,2.2,0,3-.74.37-.31.59-.75,1-1a2,2,0,0,1,3.1.81c1.12,2.23,2.55,4.34,3.2,6.83.19.8.59,1.55,1.71,1.14.37-.15.62.16.77.44a2.51,2.51,0,0,0,2.14,1.33c.31.07.62.13.93.22,1.71.65,2.08,2,.87,3.38a16.57,16.57,0,0,1-4,3.79,2.08,2.08,0,0,0-.93,1.92.48.48,0,0,0-.37.1" transform="translate(-0.36 -5.13)"/><path class="cls-2" d="M328.78,25.74c-.13-.19-.19-.38-.31-.53-.31-.31-.47-1-1.12-.56A1.06,1.06,0,0,0,327,26a2.85,2.85,0,0,1,.12.71,2.67,2.67,0,0,1-1,2.45c-.19.16-.53.31-.53.5,0,1.3-1.12,1.55-1.89,2.14-.53.37-1.15.71-.59,1.55.06.06,0,.25-.06.34-1.15,1.06-1.06,2.58-1.53,3.85-.3.87-.55.81-1.11.19a11.81,11.81,0,0,1-1.21-2.24c-1.52-3-3-6.11-4.56-9.12a1.52,1.52,0,0,1,.15-2.05,1.59,1.59,0,0,0,.47-2,.53.53,0,0,1,0-.55c1.11-1.52.71-3.2.49-4.78-.46-3.11.19-6,.81-9,.09-.38.16-.93.72-.5,1.36,1.15,2.2,0,3-.74.37-.31.59-.75,1-1a2,2,0,0,1,3.1.81c1.12,2.23,2.55,4.34,3.2,6.83.19.8.59,1.55,1.71,1.14.37-.15.62.16.77.44a2.51,2.51,0,0,0,2.14,1.33c.31.07.62.13.93.22,1.71.65,2.08,2,.87,3.38a16.57,16.57,0,0,1-4,3.79,2.08,2.08,0,0,0-.93,1.92A.48.48,0,0,0,328.78,25.74Z" transform="translate(-0.36 -5.13)"/><path class="cls-1" d="M279.34,117.53c1.09-.31,2.05.34,3,.87a2.76,2.76,0,0,0,2.73.22c1.34-.56,2.73-.9,4.1-1.43a1.69,1.69,0,0,1,1.68.22c1.86,1.27,3.72,2.54,5.61,3.75.72.47,1,.9.53,1.74a9.93,9.93,0,0,0-.9,2.11c-.25.71-.53,1.33-1.37,1.55-.65.19-.71.81-.93,1.3-.46,1.12-.49,2.49-1.92,3-.37.13-.34.59-.47.93a3.61,3.61,0,0,1-3,2.86c-.37.06-.59.19-.68.53-.12.49-.22.93-.93.65-.37-.16-.5.15-.5.49V137c0,.62-.06,1.36-.59,1.61s-.87-.53-1.27-.87c-1.27-1.21-2.45-2.57-2.54-4.47,0-.62-.59-.83-1.12-.93a5.28,5.28,0,0,1-3.76-2.54,5.14,5.14,0,0,0-3.6-2.39,3,3,0,0,1-2.08-1.49,5.62,5.62,0,0,0-2.14-2,1.64,1.64,0,0,1,.07-3c.93-.5,1.86-1,2.79-1.43,3.38-1.67,3.38-1.67,7.32-1.86" transform="translate(-0.36 -5.13)"/><path class="cls-2" d="M279.34,117.53c1.09-.31,2.05.34,3,.87a2.76,2.76,0,0,0,2.73.22c1.34-.56,2.73-.9,4.1-1.43a1.69,1.69,0,0,1,1.68.22c1.86,1.27,3.72,2.54,5.61,3.75.72.47,1,.9.53,1.74a9.93,9.93,0,0,0-.9,2.11c-.25.71-.53,1.33-1.37,1.55-.65.19-.71.81-.93,1.3-.46,1.12-.49,2.49-1.92,3-.37.13-.34.59-.47.93a3.61,3.61,0,0,1-3,2.86c-.37.06-.59.19-.68.53-.12.49-.22.93-.93.65-.37-.16-.5.15-.5.49V137c0,.62-.06,1.36-.59,1.61s-.87-.53-1.27-.87c-1.27-1.21-2.45-2.57-2.54-4.47,0-.62-.59-.83-1.12-.93a5.28,5.28,0,0,1-3.76-2.54,5.14,5.14,0,0,0-3.6-2.39,3,3,0,0,1-2.08-1.49,5.62,5.62,0,0,0-2.14-2,1.64,1.64,0,0,1,.07-3c.93-.5,1.86-1,2.79-1.43C275.4,117.72,275.4,117.72,279.34,117.53Z" transform="translate(-0.36 -5.13)"/><path class="cls-1" d="M274.9,77.16c.25,1.08.53,2.14.81,3.23.4,1.64.53,1.73,2.24,1.2a13.47,13.47,0,0,0,2.42-.74c1.14-.53,1.64,0,2.17.87.71,1.27.71,1.24,1.89.37.78-.56,1.86-.77,1.89-2,0-.21.22-.31.47-.21,1.43.4,2.36-.31,3.26-1.27.71-.78,1.3-.72,1.95.15a1.13,1.13,0,0,1,.13,1.43c-.34.53-.69.09-1,0-1.14-.28-1.83.22-2.17,1.42a11,11,0,0,1-1.8,3,4.9,4.9,0,0,0-1.3,2.76c0,.41-.34.63-.65.84a9.35,9.35,0,0,0-4.29,8.07,2.76,2.76,0,0,1-2.2,3c-.78.25-1.49.59-2.23.87s-1.15.53-1.21,1.3-.41.72-1,.47a6.38,6.38,0,0,1-2.32-1.61,2.55,2.55,0,0,0-1.68-1,2.66,2.66,0,0,1-2.33-2,1.43,1.43,0,0,0-.15-.47,3.08,3.08,0,0,1,.77-4.25c.5-.4.87-.9.34-1.64a1.08,1.08,0,0,1,.16-1.25c.4-.43.59,0,.87.19a.5.5,0,0,0,.74-.06c.28-.37.78-.62.69-1.21,0-.09-.07-.16-.07-.22-.18-.53-.65-1.21-.49-1.61.21-.59,1.05-.87,1.67-1.09,2.39-.87,2-3,2.36-4.84a19.66,19.66,0,0,0,0-3.6c-.06-.06,0-.09.06-.09" transform="translate(-0.36 -5.13)"/><path class="cls-2" d="M274.9,77.16c.25,1.08.53,2.14.81,3.23.4,1.64.53,1.73,2.24,1.2a13.47,13.47,0,0,0,2.42-.74c1.14-.53,1.64,0,2.17.87.71,1.27.71,1.24,1.89.37.78-.56,1.86-.77,1.89-2,0-.21.22-.31.47-.21,1.43.4,2.36-.31,3.26-1.27.71-.78,1.3-.72,1.95.15a1.13,1.13,0,0,1,.13,1.43c-.34.53-.69.09-1,0-1.14-.28-1.83.22-2.17,1.42a11,11,0,0,1-1.8,3,4.9,4.9,0,0,0-1.3,2.76c0,.41-.34.63-.65.84a9.35,9.35,0,0,0-4.29,8.07,2.76,2.76,0,0,1-2.2,3c-.78.25-1.49.59-2.23.87s-1.15.53-1.21,1.3-.41.72-1,.47a6.38,6.38,0,0,1-2.32-1.61,2.55,2.55,0,0,0-1.68-1,2.66,2.66,0,0,1-2.33-2,1.43,1.43,0,0,0-.15-.47,3.08,3.08,0,0,1,.77-4.25c.5-.4.87-.9.34-1.64a1.08,1.08,0,0,1,.16-1.25c.4-.43.59,0,.87.19a.5.5,0,0,0,.74-.06c.28-.37.78-.62.69-1.21,0-.09-.07-.16-.07-.22-.18-.53-.65-1.21-.49-1.61.21-.59,1.05-.87,1.67-1.09,2.39-.87,2-3,2.36-4.84a19.66,19.66,0,0,0,0-3.6C274.78,77.19,274.84,77.16,274.9,77.16Z" transform="translate(-0.36 -5.13)"/><path class="cls-1" d="M239.84,37.4a.91.91,0,0,1-.1.87c-.4,1.12-.15,1.56,1,1.68a3.24,3.24,0,0,0,2.3-.53c.68-.46,1.27-.53,1.64.34a1.08,1.08,0,0,0,.81.65.42.42,0,0,1,.34.63.48.48,0,0,1-.72.24c-1-.34-1.8-.43-2.2.87-.09.31-.46.1-.71,0A4.29,4.29,0,0,0,237,43l-.24.25c-.5.53-1.34.4-1.77,1s-.53,1.24-1.21,1.61c-.19-1.11-.56-1.36-1.34-.62-.56.53-1.58-.68-1.67.59a4.67,4.67,0,0,1-.87,1.93,13.41,13.41,0,0,1-.81,1.21c-.22.31-.43.87-.87.65a1.09,1.09,0,0,1-.56-1.43c.44-.84.31-1.21-.68-1a.55.55,0,0,1-.47-.1c-1-2-2.91-1.08-4.4-1.52a11.63,11.63,0,0,0-4.53-.37c-1.49.19-2.45-1.05-3.66-1.58a.32.32,0,0,1-.13-.5c.5-.59.75-1.49,1.49-1.67,1.55-.44,2.42-2,4-2.39.44-.13.72-.72.87-1.24a2.36,2.36,0,0,1,2.55-1.93,4,4,0,0,0,1.18-.37c.21.4.06.53-.19.62a2.53,2.53,0,0,0-1.3,3.23.69.69,0,0,0,1,.46c1.64-.62,3.26-.8,4.53.87a1.36,1.36,0,0,0,1.24.53,10.33,10.33,0,0,1,1.68.09c1,.19,1.89.31,2.6-.9.59-1,1.93-1.21,3.11-1.43.93-.18,1.89-.24,2.45-1.24a1.09,1.09,0,0,1,.84-.25" transform="translate(-0.36 -5.13)"/><path class="cls-2" d="M239.84,37.4a.91.91,0,0,1-.1.87c-.4,1.12-.15,1.56,1,1.68a3.24,3.24,0,0,0,2.3-.53c.68-.46,1.27-.53,1.64.34a1.08,1.08,0,0,0,.81.65.42.42,0,0,1,.34.63.48.48,0,0,1-.72.24c-1-.34-1.8-.43-2.2.87-.09.31-.46.1-.71,0A4.29,4.29,0,0,0,237,43l-.24.25c-.5.53-1.34.4-1.77,1s-.53,1.24-1.21,1.61c-.19-1.11-.56-1.36-1.34-.62-.56.53-1.58-.68-1.67.59a4.67,4.67,0,0,1-.87,1.93,13.41,13.41,0,0,1-.81,1.21c-.22.31-.43.87-.87.65a1.09,1.09,0,0,1-.56-1.43c.44-.84.31-1.21-.68-1a.55.55,0,0,1-.47-.1c-1-2-2.91-1.08-4.4-1.52a11.63,11.63,0,0,0-4.53-.37c-1.49.19-2.45-1.05-3.66-1.58a.32.32,0,0,1-.13-.5c.5-.59.75-1.49,1.49-1.67,1.55-.44,2.42-2,4-2.39.44-.13.72-.72.87-1.24a2.36,2.36,0,0,1,2.55-1.93,4,4,0,0,0,1.18-.37c.21.4.06.53-.19.62a2.53,2.53,0,0,0-1.3,3.23.69.69,0,0,0,1,.46c1.64-.62,3.26-.8,4.53.87a1.36,1.36,0,0,0,1.24.53,10.33,10.33,0,0,1,1.68.09c1,.19,1.89.31,2.6-.9.59-1,1.93-1.21,3.11-1.43.93-.18,1.89-.24,2.45-1.24A1.09,1.09,0,0,1,239.84,37.4Z" transform="translate(-0.36 -5.13)"/><path class="cls-1" d="M310.44,45.44c-.84.13-.94-.31-1.09-.74-.59-1.9-1.21-3.73-1.83-5.62a2,2,0,0,0-.47-1c-2.2-1.93-2.14-4.84-3.22-7.23-.22-.53.18-.62.52-.75,2.49-.9,5-1.83,7.45-2.73.41-.15.65-.18.75.37a6.44,6.44,0,0,0,.65,2.3.69.69,0,0,1-.09.9c-1.22,1.12-.5,2.82-1.25,4,1,1.56-1.11,2.8-.31,4.41a33.57,33.57,0,0,1,1.34,4.47c.28.84.09,1.06-.72,1.15a16,16,0,0,0-1.73.4" transform="translate(-0.36 -5.13)"/><path class="cls-2" d="M310.44,45.44c-.84.13-.94-.31-1.09-.74-.59-1.9-1.21-3.73-1.83-5.62a2,2,0,0,0-.47-1c-2.2-1.93-2.14-4.84-3.22-7.23-.22-.53.18-.62.52-.75,2.49-.9,5-1.83,7.45-2.73.41-.15.65-.18.75.37a6.44,6.44,0,0,0,.65,2.3.69.69,0,0,1-.09.9c-1.22,1.12-.5,2.82-1.25,4,1,1.56-1.11,2.8-.31,4.41a33.57,33.57,0,0,1,1.34,4.47c.28.84.09,1.06-.72,1.15A16,16,0,0,0,310.44,45.44Z" transform="translate(-0.36 -5.13)"/><path class="cls-1" d="M314,30.36c-.13-.9-.87-1.61-.87-2.58,0-.65-.53-1.58.15-1.86.84-.28.87.87,1.12,1.37,1.61,3.29,3.47,6.51,4.87,9.93a4.58,4.58,0,0,0,.71.93c1.28,1.4,1.12,2.85-.52,3.72s-3.32,1.59-5,2.42c-.56.28-.84.1-1-.43-.5-1.74-1-3.45-1.46-5.18a1.57,1.57,0,0,1,.19-1.06,5.43,5.43,0,0,0,.46-2.54,5.65,5.65,0,0,1,.81-3.54,1.92,1.92,0,0,0,.5-1.18" transform="translate(-0.36 -5.13)"/><path class="cls-2" d="M314,30.36c-.13-.9-.87-1.61-.87-2.58,0-.65-.53-1.58.15-1.86.84-.28.87.87,1.12,1.37,1.61,3.29,3.47,6.51,4.87,9.93a4.58,4.58,0,0,0,.71.93c1.28,1.4,1.12,2.85-.52,3.72s-3.32,1.59-5,2.42c-.56.28-.84.1-1-.43-.5-1.74-1-3.45-1.46-5.18a1.57,1.57,0,0,1,.19-1.06,5.43,5.43,0,0,0,.46-2.54,5.65,5.65,0,0,1,.81-3.54A1.92,1.92,0,0,0,314,30.36Z" transform="translate(-0.36 -5.13)"/><path class="cls-1" d="M309.78,47.06c-.15-.81.19-1,.63-1.06,3.32-.34,6-2.2,9-3.48a3.8,3.8,0,0,0,1.24-.9c.25-.24.4-.8.93-.55a1.2,1.2,0,0,1,.87,1.21c-.22,1.21.53,1.83,1.36,2.39a5.39,5.39,0,0,1,1.46,1.58,2.18,2.18,0,0,0,1.83,1.21c.22,0,.53-.09.53.28s-.28.37-.53.4a1.54,1.54,0,0,1-.37,0c-1.24-.59-1.71.09-2,1.18-.21.87-.68.87-1.21.19-.06-.07-.09-.16-.15-.19-.78-.68-1.12-2.08-2.08-2.2s-1.89.65-2.89,1c-2.23.93-4.5,1.89-6.7,2.89-.68.31-1,.25-1.27-.56a11.6,11.6,0,0,1-.69-3.41" transform="translate(-0.36 -5.13)"/><path class="cls-2" d="M309.78,47.06c-.15-.81.19-1,.63-1.06,3.32-.34,6-2.2,9-3.48a3.8,3.8,0,0,0,1.24-.9c.25-.24.4-.8.93-.55a1.2,1.2,0,0,1,.87,1.21c-.22,1.21.53,1.83,1.36,2.39a5.39,5.39,0,0,1,1.46,1.58,2.18,2.18,0,0,0,1.83,1.21c.22,0,.53-.09.53.28s-.28.37-.53.4a1.54,1.54,0,0,1-.37,0c-1.24-.59-1.71.09-2,1.18-.21.87-.68.87-1.21.19-.06-.07-.09-.16-.15-.19-.78-.68-1.12-2.08-2.08-2.2s-1.89.65-2.89,1c-2.23.93-4.5,1.89-6.7,2.89-.68.31-1,.25-1.27-.56A11.6,11.6,0,0,1,309.78,47.06Z" transform="translate(-0.36 -5.13)"/><path class="cls-1" d="M309,76.41c0-1.89-1.36-1.89-2.54-2.23-1.49-.44-1.56-.68-.87-2.11a25.12,25.12,0,0,1,1.52-2.89A2,2,0,0,0,306,66c-1.18-.38-1.9-1.59-1.9-3.26,0-.68.19-1.37.19-2-.06-1.21.56-1.39,1.55-1.24,1.34.19,2.61.71,4,.53.55-.1.9.31.49.9a4.94,4.94,0,0,0-.77,2.14c-.13.81-.06,1.58,1.08,1.74a1.24,1.24,0,0,1,1.12,1.64c-.4,1.46-.68,2.92-1.09,4.38s-.74,2.85-1,4.28a1.57,1.57,0,0,1-.59,1.3" transform="translate(-0.36 -5.13)"/><path class="cls-2" d="M309,76.41c0-1.89-1.36-1.89-2.54-2.23-1.49-.44-1.56-.68-.87-2.11a25.12,25.12,0,0,1,1.52-2.89A2,2,0,0,0,306,66c-1.18-.38-1.9-1.59-1.9-3.26,0-.68.19-1.37.19-2-.06-1.21.56-1.39,1.55-1.24,1.34.19,2.61.71,4,.53.55-.1.9.31.49.9a4.94,4.94,0,0,0-.77,2.14c-.13.81-.06,1.58,1.08,1.74a1.24,1.24,0,0,1,1.12,1.64c-.4,1.46-.68,2.92-1.09,4.38s-.74,2.85-1,4.28A1.57,1.57,0,0,1,309,76.41Z" transform="translate(-0.36 -5.13)"/><path class="cls-1" d="M291.76,77.44c3.63-1.21,7.16-2.45,10.7-3.6,1-.31,1.15.68,1.27,1.21.53,2.17,1.37,4.22,1.93,6.36.21.87.56,1.09,1.33.71.16-.06.31-.18.47-.15.4,0,1-.72,1.18.09.12.59.37,1.49-.59,1.86a5.27,5.27,0,0,0-.78.34c-.74.44-1.24.53-1.3-.62a1.1,1.1,0,0,0-1.24-1.21c-.72-.06-2-.18-1.18-1.58a.28.28,0,0,0-.1-.43c-1.58-.9-1.14-2.58-1.55-4-.09-.27-.09-.59-.43-.65a.87.87,0,0,0-1,.34c-.47.81-1.06,1.56-.75,2.58.4,1.3.84,2.58,1.34,3.88a1.86,1.86,0,0,0,1.11,1c.53.19.53.62.41,1s-.22.93-.9.93-1.46.09-1.9-.68c-.24-.44-.62-.5-1.14-.35s-1-.09-.75-.77a2.4,2.4,0,0,0-1.43-3.26c-1.18-.56-2.05-1.65-3.5-1.74-.35-.09-.72-.8-1.24-1.36" transform="translate(-0.36 -5.13)"/><path class="cls-2" d="M291.76,77.44c3.63-1.21,7.16-2.45,10.7-3.6,1-.31,1.15.68,1.27,1.21.53,2.17,1.37,4.22,1.93,6.36.21.87.56,1.09,1.33.71.16-.06.31-.18.47-.15.4,0,1-.72,1.18.09.12.59.37,1.49-.59,1.86a5.27,5.27,0,0,0-.78.34c-.74.44-1.24.53-1.3-.62a1.1,1.1,0,0,0-1.24-1.21c-.72-.06-2-.18-1.18-1.58a.28.28,0,0,0-.1-.43c-1.58-.9-1.14-2.58-1.55-4-.09-.27-.09-.59-.43-.65a.87.87,0,0,0-1,.34c-.47.81-1.06,1.56-.75,2.58.4,1.3.84,2.58,1.34,3.88a1.86,1.86,0,0,0,1.11,1c.53.19.53.62.41,1s-.22.93-.9.93-1.46.09-1.9-.68c-.24-.44-.62-.5-1.14-.35s-1-.09-.75-.77a2.4,2.4,0,0,0-1.43-3.26c-1.18-.56-2.05-1.65-3.5-1.74C292.65,78.71,292.28,78,291.76,77.44Z" transform="translate(-0.36 -5.13)"/><path class="cls-1" d="M310.69,52.55c-.1-.62.43-.68.83-.87,2.18-.93,4.35-1.89,6.52-2.79a1.74,1.74,0,0,1,2.39,1.33c0,.19,0,.34,0,.5.4,1.3.47,2.39-1.36,2.48-.31,0-.44.34-.53.59a1.17,1.17,0,0,1-1.31.84c-1.11-.19-1.67.53-2.23,1.27-.19.25-.31.56-.53.81-.8.8-1.42.71-1.95-.25-.68-1.27-1.62-2.42-1.86-3.91" transform="translate(-0.36 -5.13)"/><path class="cls-2" d="M310.69,52.55c-.1-.62.43-.68.83-.87,2.18-.93,4.35-1.89,6.52-2.79a1.74,1.74,0,0,1,2.39,1.33c0,.19,0,.34,0,.5.4,1.3.47,2.39-1.36,2.48-.31,0-.44.34-.53.59a1.17,1.17,0,0,1-1.31.84c-1.11-.19-1.67.53-2.23,1.27-.19.25-.31.56-.53.81-.8.8-1.42.71-1.95-.25C311.87,55.19,310.93,54,310.69,52.55Z" transform="translate(-0.36 -5.13)"/><path class="cls-1" d="M106,117.75c-4.74-.65-9.49-1.4-14.27-2.08-4.35-.65-8.75-1.24-13.1-1.92-1.08-.19-1.55.15-1.58,1.27a19.15,19.15,0,0,1-.37,2.6c-.47,2.7-.5,2.73-3.14,2-.68-.18-.93,0-1.27.59-1.3,2.14-.09,4.59-1,6.74-.09.18.15.52.25.8.65,1.59,1.21,3.23,2,4.78.5,1,.53,1.8-.59,2.39-.37.19-.81.5-.87.93a13.42,13.42,0,0,1-2.39,4.94,2.38,2.38,0,0,0,.13,2.35v0A3.16,3.16,0,0,1,69.1,145a2.9,2.9,0,0,0-.59.71c-.22.37.15.62.49.84l7.64,4.37a.85.85,0,0,0,.46.19.35.35,0,0,0,.22.09,6.09,6.09,0,0,0,.87.53,1.44,1.44,0,0,0,.53.4q5.91,3.36,11.82,6.77a3.44,3.44,0,0,0,1.36.43c3.63.31,7.3.62,10.9,1,.8.09.93-.19,1-.87.19-2.58.43-5.22.62-7.79q.66-8.3,1.3-16.57c.44-5.4.87-10.8,1.34-16.2-.06-.75-.22-1.06-1.06-1.18" transform="translate(-0.36 -5.13)"/><path class="cls-2" d="M106,117.75c-4.74-.65-9.49-1.4-14.27-2.08-4.35-.65-8.75-1.24-13.1-1.92-1.08-.19-1.55.15-1.58,1.27a19.15,19.15,0,0,1-.37,2.6c-.47,2.7-.5,2.73-3.14,2-.68-.18-.93,0-1.27.59-1.3,2.14-.09,4.59-1,6.74-.09.18.15.52.25.8.65,1.59,1.21,3.23,2,4.78.5,1,.53,1.8-.59,2.39-.37.19-.81.5-.87.93a13.42,13.42,0,0,1-2.39,4.94,2.38,2.38,0,0,0,.13,2.35v0A3.16,3.16,0,0,1,69.1,145a2.9,2.9,0,0,0-.59.71c-.22.37.15.62.49.84l7.64,4.37a.85.85,0,0,0,.46.19.35.35,0,0,0,.22.09,6.09,6.09,0,0,0,.87.53,1.44,1.44,0,0,0,.53.4q5.91,3.36,11.82,6.77a3.44,3.44,0,0,0,1.36.43c3.63.31,7.3.62,10.9,1,.8.09.93-.19,1-.87.19-2.58.43-5.22.62-7.79q.66-8.3,1.3-16.57c.44-5.4.87-10.8,1.34-16.2C107,118.18,106.83,117.87,106,117.75Z" transform="translate(-0.36 -5.13)"/><path class="cls-1" d="M308.89,79.67c.18,1.89-1.21,1.52-2,1.8s-.62-.59-.78-1c-.84-2.11-1.18-4.41-2.17-6.46-.12-.21-.34-.52.09-.71s.5.19.59.43c.41.87.75,1.77,1.21,2.61a3.19,3.19,0,0,0,2.24,2c.9.15.71,1,.84,1.36" transform="translate(-0.36 -5.13)"/><path class="cls-2" d="M308.89,79.67c.18,1.89-1.21,1.52-2,1.8s-.62-.59-.78-1c-.84-2.11-1.18-4.41-2.17-6.46-.12-.21-.34-.52.09-.71s.5.19.59.43c.41.87.75,1.77,1.21,2.61a3.19,3.19,0,0,0,2.24,2C309,78.46,308.76,79.3,308.89,79.67Z" transform="translate(-0.36 -5.13)"/><path class="cls-1" d="M322,49.72a2.12,2.12,0,0,1-.06,1.62c-.13.18-.25.46-.53.43s-.4-.31-.4-.52a3.11,3.11,0,0,0-.93-2.58c-.38-.31.09-.56.34-.72s.68-.52,1,0,.9,1.06.56,1.77" transform="translate(-0.36 -5.13)"/><path class="cls-2" d="M322,49.72a2.12,2.12,0,0,1-.06,1.62c-.13.18-.25.46-.53.43s-.4-.31-.4-.52a3.11,3.11,0,0,0-.93-2.58c-.38-.31.09-.56.34-.72s.68-.52,1,0S322.32,49,322,49.72Z" transform="translate(-0.36 -5.13)"/><path class="cls-1" d="M283.69,81.91a2.61,2.61,0,0,1-1.06-1.34c-.19-.53.47-.43.71-.53a7.07,7.07,0,0,1,1.34-.46c.31-.1.74-.41,1-.06a1,1,0,0,1-.18,1,16.52,16.52,0,0,1-1.77,1.4" transform="translate(-0.36 -5.13)"/><path class="cls-2" d="M283.69,81.91a2.61,2.61,0,0,1-1.06-1.34c-.19-.53.47-.43.71-.53a7.07,7.07,0,0,1,1.34-.46c.31-.1.74-.41,1-.06a1,1,0,0,1-.18,1A16.52,16.52,0,0,1,283.69,81.91Z" transform="translate(-0.36 -5.13)"/><path class="cls-1" d="M307.3,89a12,12,0,0,1,.53-3c.87.71.74,1.77-.53,3" transform="translate(-0.36 -5.13)"/><path class="cls-2" d="M307.3,89a12,12,0,0,1,.53-3C308.7,86.65,308.57,87.71,307.3,89Z" transform="translate(-0.36 -5.13)"/><path class="cls-1" d="M294,168.7a9.72,9.72,0,0,1-2-3c1.74.5,1.37,2.08,2,3" transform="translate(-0.36 -5.13)"/><path class="cls-2" d="M294,168.7a9.72,9.72,0,0,1-2-3C293.71,166.16,293.34,167.74,294,168.7Z" transform="translate(-0.36 -5.13)"/><path class="cls-1" d="M328.75,46.4c.15-.8-.35-1.33-.81-2.08.87.13,1.49.31,1.64,1.06.16.56-.18.87-.83,1" transform="translate(-0.36 -5.13)"/><path class="cls-2" d="M328.75,46.4c.15-.8-.35-1.33-.81-2.08.87.13,1.49.31,1.64,1.06C329.74,45.94,329.4,46.25,328.75,46.4Z" transform="translate(-0.36 -5.13)"/><path class="cls-1" d="M289.3,78.27a2.06,2.06,0,0,1-2.88.87,13.33,13.33,0,0,1,2.88-.87" transform="translate(-0.36 -5.13)"/><path class="cls-2" d="M289.3,78.27a2.06,2.06,0,0,1-2.88.87A13.33,13.33,0,0,1,289.3,78.27Z" transform="translate(-0.36 -5.13)"/><path class="cls-1" d="M73.16,133.36c-1.06-2.36-1.64-5-3.23-7.11Q57,108.57,44.08,91a2.46,2.46,0,0,1-.43-2.11c1.46-6.55,2.85-13.1,4.28-19.65.16-.71.06-1-.65-1.21-7.11-2-14.21-4-21.29-6-1.15-.31-1.55.16-1.18,1.24a3.57,3.57,0,0,1-.34,3.23,1.73,1.73,0,0,0-.25,1.58c.47,1.21-.09,1.9-1,2.43-.31.18-.59.43-.87.62-1.37,1-1.65,1.55-.84,3a10,10,0,0,1,.87,7.35,8.9,8.9,0,0,0,1,6.74,5.59,5.59,0,0,1,1,4.28c-.09.4-.49,1,.19,1.27a2.36,2.36,0,0,0,2,.16c.37-.19.52-.69.86-1,.69-.68,1-.59,1.28.34a6,6,0,0,1,.06,2.95c-.16.62-.28,1.21-1.15,1-.31-.09-.5.13-.62.41a3.86,3.86,0,0,0,.62,4.12,18.72,18.72,0,0,1,1.46,1.62,1.81,1.81,0,0,1,.09,2.23,1.15,1.15,0,0,0-.09,1.49,12.93,12.93,0,0,1,2,6.08.9.9,0,0,0,.43.81c1.55,1,1.83,2.73,2.51,4.25a2.08,2.08,0,0,1-.37,2.36,1.24,1.24,0,0,0,0,1.77,10.88,10.88,0,0,0,4.87,3.13c.13,0,.28.1.34,0,.87-.84,1.25,0,1.52.52,1.37,3.11,5.22,3.73,6.71,6.71.09.15.31.21.53.31,1.89,1,2.91,2.82,4.25,4.34a1.53,1.53,0,0,1,.28.9,16,16,0,0,0,1,4.66,1.3,1.3,0,0,0,1.27.93,74.31,74.31,0,0,0,7.76.18h.84c.65.16,1.24.41,1.89.59h0a4.17,4.17,0,0,0,1.4.25c.31,0,.62,0,.9,0h0a.64.64,0,0,0,.25,0,2.47,2.47,0,0,0,.81-.16.94.94,0,0,0,.58-.4,1,1,0,0,0,.35-.53c.18-.21.12-.59-.07-1.08a2.78,2.78,0,0,1,.62-3.08,6.08,6.08,0,0,0,1.46-2.85,3.44,3.44,0,0,1,1.49-2.36c.34-.18.75-.53.53-1" transform="translate(-0.36 -5.13)"/><path class="cls-2" d="M73.16,133.36c-1.06-2.36-1.64-5-3.23-7.11Q57,108.57,44.08,91a2.46,2.46,0,0,1-.43-2.11c1.46-6.55,2.85-13.1,4.28-19.65.16-.71.06-1-.65-1.21-7.11-2-14.21-4-21.29-6-1.15-.31-1.55.16-1.18,1.24a3.57,3.57,0,0,1-.34,3.23,1.73,1.73,0,0,0-.25,1.58c.47,1.21-.09,1.9-1,2.43-.31.18-.59.43-.87.62-1.37,1-1.65,1.55-.84,3a10,10,0,0,1,.87,7.35,8.9,8.9,0,0,0,1,6.74,5.59,5.59,0,0,1,1,4.28c-.09.4-.49,1,.19,1.27a2.36,2.36,0,0,0,2,.16c.37-.19.52-.69.86-1,.69-.68,1-.59,1.28.34a6,6,0,0,1,.06,2.95c-.16.62-.28,1.21-1.15,1-.31-.09-.5.13-.62.41a3.86,3.86,0,0,0,.62,4.12,18.72,18.72,0,0,1,1.46,1.62,1.81,1.81,0,0,1,.09,2.23,1.15,1.15,0,0,0-.09,1.49,12.93,12.93,0,0,1,2,6.08.9.9,0,0,0,.43.81c1.55,1,1.83,2.73,2.51,4.25a2.08,2.08,0,0,1-.37,2.36,1.24,1.24,0,0,0,0,1.77,10.88,10.88,0,0,0,4.87,3.13c.13,0,.28.1.34,0,.87-.84,1.25,0,1.52.52,1.37,3.11,5.22,3.73,6.71,6.71.09.15.31.21.53.31,1.89,1,2.91,2.82,4.25,4.34a1.53,1.53,0,0,1,.28.9,16,16,0,0,0,1,4.66,1.3,1.3,0,0,0,1.27.93,74.31,74.31,0,0,0,7.76.18h.84c.65.16,1.24.41,1.89.59h0a4.17,4.17,0,0,0,1.4.25c.31,0,.62,0,.9,0h0a.64.64,0,0,0,.25,0,2.47,2.47,0,0,0,.81-.16.94.94,0,0,0,.58-.4,1,1,0,0,0,.35-.53c.18-.21.12-.59-.07-1.08a2.78,2.78,0,0,1,.62-3.08,6.08,6.08,0,0,0,1.46-2.85,3.44,3.44,0,0,1,1.49-2.36C73,134.2,73.38,133.85,73.16,133.36Z" transform="translate(-0.36 -5.13)"/><path class="cls-1" d="M284.68,153.56c-.31,1,.22,1.92.34,2.92a2.1,2.1,0,0,1-.49-3,.26.26,0,0,1,.15.09" transform="translate(-0.36 -5.13)"/><path class="cls-2" d="M284.68,153.56c-.31,1,.22,1.92.34,2.92a2.1,2.1,0,0,1-.49-3A.26.26,0,0,1,284.68,153.56Z" transform="translate(-0.36 -5.13)"/><path class="cls-1" d="M276,62.23c-.15,0-.34.12-.37.06s.06-.18.15-.28.13.13.22.22" transform="translate(-0.36 -5.13)"/><path class="cls-2" d="M276,62.23c-.15,0-.34.12-.37.06s.06-.18.15-.28S275.9,62.14,276,62.23Z" transform="translate(-0.36 -5.13)"/><path class="cls-1" d="M47.25,14.56c-.1-.09-.28-.15-.16-.27s.25,0,.38.06c-.07,0-.13.12-.22.21" transform="translate(-0.36 -5.13)"/><path class="cls-2" d="M47.25,14.56c-.1-.09-.28-.15-.16-.27s.25,0,.38.06C47.4,14.38,47.34,14.47,47.25,14.56Z" transform="translate(-0.36 -5.13)"/><path class="cls-1" d="M231.71,51.21c.09-.09.15-.18.21-.24.16.15.1.28,0,.43-.06-.06-.15-.12-.21-.19" transform="translate(-0.36 -5.13)"/><path class="cls-2" d="M231.71,51.21c.09-.09.15-.18.21-.24.16.15.1.28,0,.43C231.86,51.34,231.77,51.28,231.71,51.21Z" transform="translate(-0.36 -5.13)"/><path class="cls-1" d="M212.37,89.26a.64.64,0,0,1,0,.25l-.18-.09a.33.33,0,0,0,.21-.16" transform="translate(-0.36 -5.13)"/><path class="cls-2" d="M212.37,89.26a.64.64,0,0,1,0,.25l-.18-.09A.33.33,0,0,0,212.37,89.26Z" transform="translate(-0.36 -5.13)"/><path class="cls-1" d="M308.82,108.78c.1,0,.19,0,.25,0s0,.12-.06.19a1.08,1.08,0,0,0-.19-.22" transform="translate(-0.36 -5.13)"/><path class="cls-2" d="M308.82,108.78c.1,0,.19,0,.25,0s0,.12-.06.19A1.08,1.08,0,0,0,308.82,108.78Z" transform="translate(-0.36 -5.13)"/><path class="cls-1" d="M284.49,151.2c.19-.06.31-.09.19.19a.57.57,0,0,1-.19-.19" transform="translate(-0.36 -5.13)"/><path class="cls-2" d="M284.49,151.2c.19-.06.31-.09.19.19A.57.57,0,0,1,284.49,151.2Z" transform="translate(-0.36 -5.13)"/><path class="cls-1" d="M319,57a28.73,28.73,0,0,1-6.73,5.33c-.19.13-.41.38-.62.13a.58.58,0,0,1,.06-.78A11.84,11.84,0,0,1,317,57.7c.65-.22,1-1.15,2-.74" transform="translate(-0.36 -5.13)"/><path class="cls-2" d="M319,57a28.73,28.73,0,0,1-6.73,5.33c-.19.13-.41.38-.62.13a.58.58,0,0,1,.06-.78A11.84,11.84,0,0,1,317,57.7C317.67,57.48,318,56.55,319,57Z" transform="translate(-0.36 -5.13)"/><path class="cls-1" d="M46.75,190.92c-.74.53-1.52,1.31-2.26.07-1.21.65-2.27-1.31-3.6-.19-.87.74-1.52,0-1.87-.78s-.58-1.11-1.39-.52-1.15-.19-1.37-.69c-.4-.87-.87-1.3-1.83-.87-.56.25-1.21-.65-1.77.13-.43.59.19,1.15.16,1.74s-.09,1-.72,1.21A6.84,6.84,0,0,0,30,192.16c-1,.87-1.55-.24-2.32-.43-.25-.06-.06-.34,0-.5.28-.49.65-.9.93-1.39.43-.75.84-1.31,1.89-.93.47.15,1.46.21.75-.87a.17.17,0,0,1-.07-.13c-.15-.49.84-1.11.19-1.27a3.81,3.81,0,0,0-2.54.37,6.15,6.15,0,0,0-2.58,2.33.77.77,0,0,1-.56.34,1.57,1.57,0,0,0-.53.19c.1,1.46-1.52,1.64-2,2.67-.28.56-.78,1,.15,1.39.13.07.16.25.22.41-1,.25-.74,2-2.11,1.89,0,0-.12,0-.12,0-.9,1.21-2.58,1.34-3.51,2.55-.19.21-.25.52-.53.58-1.18.22-1.8,1.21-2.61,1.9a1.69,1.69,0,0,1-.86.28c-2.05.43-4.13.4-6.21.71.56-1.27.59-1.27,1.8-.87.56.19,1.15.37,1.46-.31a2.83,2.83,0,0,1,2.33-1.46c.77-.15,1.64-.18,1.86-1.21a.39.39,0,0,1,.25-.21c1.55-.1,1.52-1.25,1.67-2.3a4.21,4.21,0,0,1,.84-1.46,1.51,1.51,0,0,0,.4-.71c.06-.31-.37-.47-.52-.34-1.09.71-1.31-2.24-2.52-.56-.34.46-.4.31-.74.06a16.4,16.4,0,0,1-1.65-1.18c-.49-.47-1-.62-1.55,0-.19.19-.4.37-.62.19a.61.61,0,0,1-.09-.69c.65-1.11.24-2.36.59-3.54a.8.8,0,0,0-.47-1.11c-.59-.25-.81.18-1,.56a1.12,1.12,0,0,1-1.65.43c-.65-.28-.74-1.06-.74-1.68s.53-.52.93-.34.59.62.87.16-.1-.84-.53-1A3.81,3.81,0,0,1,7,182.86c-.31-.53-1.18-1.15.19-1.46.18,0,.24-.47.4-.72S7.84,180,8,180a2.58,2.58,0,0,0,2.05-1.58c.16-.28.47-.28.71,0a1.05,1.05,0,0,0,.5.28c1.21.24,2.33-.38,3.45-.62a2.51,2.51,0,0,0,1.73-2.74c0-.24.19-.43.28-.62.28-.77-.21-1.52-1-1.21-1.46.5-2.79-.34-4.22-.18A1.59,1.59,0,0,1,10,172c0-.21-.13-.59.15-.65,1.8-.28.41-.87.13-1.27s-.84-.43-.72-.87.75-.28,1.15-.43c.84-.28,1.86.12,2.42-1,.16-.27.93-.27,1.24.41a3.24,3.24,0,0,0,3.73,1.49,7.06,7.06,0,0,1,1.64-.19c.37-.06.87.06.9-.53a.83.83,0,0,0-.71-.87c-1.21-.18-1.77-1.55-3-1.64-.25,0-.56-.37-.47-.62.53-1.27-.46-2-.93-2.92-.74-1.3-.49-2.11,1-2.57a5.18,5.18,0,0,1,1.42-.19A1.74,1.74,0,0,0,19.66,159a3.66,3.66,0,0,1,4.22-2,.66.66,0,0,0,1-.56c.16-.66.44-.81,1.12-.66,1.15.25,1.37.13,2.23-.65.41,1.49,1.09,1.9,2.58,1.34.87-.31,1.52-.16,1.83.59.47,1.15,1.21.9,1.92.59a1.44,1.44,0,0,1,1.87.43c1.21,1.18,2.79,1.12,4.28.87a3.23,3.23,0,0,1,3.69,2.92q0,13.31.1,26.62c0,2.24,0,2.24,2.23,2.52,0-.22,0-.13.06-.1" transform="translate(-0.36 -5.13)"/><path class="cls-2" d="M46.75,190.92c-.74.53-1.52,1.31-2.26.07-1.21.65-2.27-1.31-3.6-.19-.87.74-1.52,0-1.87-.78s-.58-1.11-1.39-.52-1.15-.19-1.37-.69c-.4-.87-.87-1.3-1.83-.87-.56.25-1.21-.65-1.77.13-.43.59.19,1.15.16,1.74s-.09,1-.72,1.21A6.84,6.84,0,0,0,30,192.16c-1,.87-1.55-.24-2.32-.43-.25-.06-.06-.34,0-.5.28-.49.65-.9.93-1.39.43-.75.84-1.31,1.89-.93.47.15,1.46.21.75-.87a.17.17,0,0,1-.07-.13c-.15-.49.84-1.11.19-1.27a3.81,3.81,0,0,0-2.54.37,6.15,6.15,0,0,0-2.58,2.33.77.77,0,0,1-.56.34,1.57,1.57,0,0,0-.53.19c.1,1.46-1.52,1.64-2,2.67-.28.56-.78,1,.15,1.39.13.07.16.25.22.41-1,.25-.74,2-2.11,1.89,0,0-.12,0-.12,0-.9,1.21-2.58,1.34-3.51,2.55-.19.21-.25.52-.53.58-1.18.22-1.8,1.21-2.61,1.9a1.69,1.69,0,0,1-.86.28c-2.05.43-4.13.4-6.21.71.56-1.27.59-1.27,1.8-.87.56.19,1.15.37,1.46-.31a2.83,2.83,0,0,1,2.33-1.46c.77-.15,1.64-.18,1.86-1.21a.39.39,0,0,1,.25-.21c1.55-.1,1.52-1.25,1.67-2.3a4.21,4.21,0,0,1,.84-1.46,1.51,1.51,0,0,0,.4-.71c.06-.31-.37-.47-.52-.34-1.09.71-1.31-2.24-2.52-.56-.34.46-.4.31-.74.06a16.4,16.4,0,0,1-1.65-1.18c-.49-.47-1-.62-1.55,0-.19.19-.4.37-.62.19a.61.61,0,0,1-.09-.69c.65-1.11.24-2.36.59-3.54a.8.8,0,0,0-.47-1.11c-.59-.25-.81.18-1,.56a1.12,1.12,0,0,1-1.65.43c-.65-.28-.74-1.06-.74-1.68s.53-.52.93-.34.59.62.87.16-.1-.84-.53-1A3.81,3.81,0,0,1,7,182.86c-.31-.53-1.18-1.15.19-1.46.18,0,.24-.47.4-.72S7.84,180,8,180a2.58,2.58,0,0,0,2.05-1.58c.16-.28.47-.28.71,0a1.05,1.05,0,0,0,.5.28c1.21.24,2.33-.38,3.45-.62a2.51,2.51,0,0,0,1.73-2.74c0-.24.19-.43.28-.62.28-.77-.21-1.52-1-1.21-1.46.5-2.79-.34-4.22-.18A1.59,1.59,0,0,1,10,172c0-.21-.13-.59.15-.65,1.8-.28.41-.87.13-1.27s-.84-.43-.72-.87.75-.28,1.15-.43c.84-.28,1.86.12,2.42-1,.16-.27.93-.27,1.24.41a3.24,3.24,0,0,0,3.73,1.49,7.06,7.06,0,0,1,1.64-.19c.37-.06.87.06.9-.53a.83.83,0,0,0-.71-.87c-1.21-.18-1.77-1.55-3-1.64-.25,0-.56-.37-.47-.62.53-1.27-.46-2-.93-2.92-.74-1.3-.49-2.11,1-2.57a5.18,5.18,0,0,1,1.42-.19A1.74,1.74,0,0,0,19.66,159a3.66,3.66,0,0,1,4.22-2,.66.66,0,0,0,1-.56c.16-.66.44-.81,1.12-.66,1.15.25,1.37.13,2.23-.65.41,1.49,1.09,1.9,2.58,1.34.87-.31,1.52-.16,1.83.59.47,1.15,1.21.9,1.92.59a1.44,1.44,0,0,1,1.87.43c1.21,1.18,2.79,1.12,4.28.87a3.23,3.23,0,0,1,3.69,2.92q0,13.31.1,26.62c0,2.24,0,2.24,2.23,2.52C46.66,190.8,46.72,190.89,46.75,190.92Z" transform="translate(-0.36 -5.13)"/><path class="cls-1" d="M46.6,190.74c.25-.16.31-.72.8-.41.1.07.19.19.16.28-.16.41-.53.19-.81.31,0,0-.09-.12-.15-.18" transform="translate(-0.36 -5.13)"/><path class="cls-2" d="M46.6,190.74c.25-.16.31-.72.8-.41.1.07.19.19.16.28-.16.41-.53.19-.81.31C46.72,190.89,46.66,190.8,46.6,190.74Z" transform="translate(-0.36 -5.13)"/><path class="cls-1" d="M6.53,202c-.31.22-.59.25-.71.1s.15-.16.22-.16.21,0,.49.06" transform="translate(-0.36 -5.13)"/><path class="cls-2" d="M6.53,202c-.31.22-.59.25-.71.1s.15-.16.22-.16S6.25,202,6.53,202Z" transform="translate(-0.36 -5.13)"/><path class="cls-1" d="M28.38,193c0-.06,0-.12,0-.18.19.15,0,.15,0,.18" transform="translate(-0.36 -5.13)"/><path class="cls-2" d="M28.38,193c0-.06,0-.12,0-.18C28.6,193,28.41,193,28.38,193Z" transform="translate(-0.36 -5.13)"/><path class="cls-1" d="M28.35,193s-.06.06-.06.09.06,0,.06-.09h0" transform="translate(-0.36 -5.13)"/><path class="cls-2" d="M28.35,193s-.06.06-.06.09.06,0,.06-.09Z" transform="translate(-0.36 -5.13)"/><path class="cls-1" d="M61.55,204.61c-.68-.84-.77-2.24-2.26-2.42a5.22,5.22,0,0,0,2.3,4.62c.31.19.52,0,.77-.12s.19-.47.19-.72c0-.65-.65-1-1-1.36" transform="translate(-0.36 -5.13)"/><path class="cls-2" d="M61.55,204.61c-.68-.84-.77-2.24-2.26-2.42a5.22,5.22,0,0,0,2.3,4.62c.31.19.52,0,.77-.12s.19-.47.19-.72C62.52,205.32,61.9,205,61.55,204.61Z" transform="translate(-0.36 -5.13)"/><path class="cls-1" d="M53.7,194.86c0,.53,1.43.63.5,1.49-1.09,1-1.12,1.15.12,2.3.31-.74-.09-1.86.69-2s1.64.53,2.17,1.62c-.06-1.46-2-3.2-3.48-3.39" transform="translate(-0.36 -5.13)"/><path class="cls-2" d="M53.7,194.86c0,.53,1.43.63.5,1.49-1.09,1-1.12,1.15.12,2.3.31-.74-.09-1.86.69-2s1.64.53,2.17,1.62C57.12,196.79,55.19,195.05,53.7,194.86Z" transform="translate(-0.36 -5.13)"/><path class="cls-1" d="M47.9,191.92c-.16.34-.16.77.4.8.78.07,1.06.66,1.52,1.15a3.39,3.39,0,0,0,3,1.46c-1.55-1.24-2.88-2.3-4.22-3.35-.18-.13-.49-.47-.68-.06" transform="translate(-0.36 -5.13)"/><path class="cls-2" d="M47.9,191.92c-.16.34-.16.77.4.8.78.07,1.06.66,1.52,1.15a3.39,3.39,0,0,0,3,1.46c-1.55-1.24-2.88-2.3-4.22-3.35C48.4,191.85,48.09,191.51,47.9,191.92Z" transform="translate(-0.36 -5.13)"/><path class="cls-1" d="M63.45,201.54c.43,1.11.8,2.14,1.21,3.26q1.16-2.56-1.21-3.26" transform="translate(-0.36 -5.13)"/><path class="cls-2" d="M63.45,201.54c.43,1.11.8,2.14,1.21,3.26Q65.82,202.24,63.45,201.54Z" transform="translate(-0.36 -5.13)"/><path class="cls-1" d="M52,193.44c1,.43,2,.8,3,1.21-.47-1.52-1.46-2.11-3-1.21" transform="translate(-0.36 -5.13)"/><path class="cls-2" d="M52,193.44c1,.43,2,.8,3,1.21C54.6,193.13,53.61,192.54,52,193.44Z" transform="translate(-0.36 -5.13)"/><path class="cls-1" d="M55.19,193.19l-.06.06.06-.06a1.47,1.47,0,0,1-.18-.28c-.1-.09-.16-.19-.22-.25l-.19.19a1.86,1.86,0,0,0,.28.18c.09.1.19.16.25.22A5.37,5.37,0,0,0,57.46,196c.12,0,.18.09.31.13a1.08,1.08,0,0,0-.19-.22,10.84,10.84,0,0,0-2.39-2.7" transform="translate(-0.36 -5.13)"/><path class="cls-2" d="M55.19,193.19l-.06.06.06-.06a1.47,1.47,0,0,1-.18-.28c-.1-.09-.16-.19-.22-.25l-.19.19a1.86,1.86,0,0,0,.28.18c.09.1.19.16.25.22A5.37,5.37,0,0,0,57.46,196c.12,0,.18.09.31.13a1.08,1.08,0,0,0-.19-.22A10.84,10.84,0,0,0,55.19,193.19Z" transform="translate(-0.36 -5.13)"/><path class="cls-1" d="M55.25,200.05c-.18.59-.12,1,.53,1.15.19,0,.5.06.5-.19,0-.71-.56-.78-1-1" transform="translate(-0.36 -5.13)"/><path class="cls-2" d="M55.25,200.05c-.18.59-.12,1,.53,1.15.19,0,.5.06.5-.19C56.31,200.3,55.72,200.23,55.25,200.05Z" transform="translate(-0.36 -5.13)"/><path class="cls-1" d="M54.26,192.44c-.12.16.16.28.31.38l.19-.19c-.13-.12-.28-.43-.5-.19" transform="translate(-0.36 -5.13)"/><path class="cls-2" d="M54.26,192.44c-.12.16.16.28.31.38l.19-.19C54.63,192.51,54.48,192.2,54.26,192.44Z" transform="translate(-0.36 -5.13)"/><path class="cls-1" d="M53.8,192.07a1.43,1.43,0,0,0-.19-.09s-.06.12-.09.18a.46.46,0,0,0,.18.07s.07-.1.1-.16" transform="translate(-0.36 -5.13)"/><path class="cls-2" d="M53.8,192.07a1.43,1.43,0,0,0-.19-.09s-.06.12-.09.18a.46.46,0,0,0,.18.07S53.77,192.13,53.8,192.07Z" transform="translate(-0.36 -5.13)"/><path class="cls-1" d="M57.71,196.11h0c.06.06.09.06.12.09a.41.41,0,0,0-.12-.09h0" transform="translate(-0.36 -5.13)"/><path class="cls-2" d="M57.71,196.11h0c.06.06.09.06.12.09a.41.41,0,0,0-.12-.09Z" transform="translate(-0.36 -5.13)"/><path class="cls-1" d="M2.87,175.66h0" transform="translate(-0.36 -5.13)"/><path class="cls-2" d="M2.87,175.66Z" transform="translate(-0.36 -5.13)"/><path class="cls-1" d="M2.87,175.66Z" transform="translate(-0.36 -5.13)"/><path class="cls-2" d="M2.87,175.66Z" transform="translate(-0.36 -5.13)"/><path class="cls-1" d="M3.68,174.41c-.19-.27-.56-.37-.65-.83-.16-1.09-1.21-1.18-1.93-1.56-.31-.18-.46.13-.49.47a8.27,8.27,0,0,0,2.23,3.23c.65,0,1.06,0,1.21-.34s-.15-.69-.37-1" transform="translate(-0.36 -5.13)"/><path class="cls-2" d="M3.68,174.41c-.19-.27-.56-.37-.65-.83-.16-1.09-1.21-1.18-1.93-1.56-.31-.18-.46.13-.49.47a8.27,8.27,0,0,0,2.23,3.23c.65,0,1.06,0,1.21-.34S3.9,174.69,3.68,174.41Z" transform="translate(-0.36 -5.13)"/><path class="cls-1" d="M25.68,196c-.53-.27-1.18-.52-1.55-.06A6.72,6.72,0,0,1,21,198.56s-.09.15-.09.18c0,.25,1.55,2,2,2,.43-.68,1.43-.87,2-1.55a1.09,1.09,0,0,0,0-1.68c-.16-.15-.41-.18-.22-.46a.49.49,0,0,1,.65-.1c.28.1.62.41.81-.06s-.22-.62-.56-.84" transform="translate(-0.36 -5.13)"/><path class="cls-2" d="M25.68,196c-.53-.27-1.18-.52-1.55-.06A6.72,6.72,0,0,1,21,198.56s-.09.15-.09.18c0,.25,1.55,2,2,2,.43-.68,1.43-.87,2-1.55a1.09,1.09,0,0,0,0-1.68c-.16-.15-.41-.18-.22-.46a.49.49,0,0,1,.65-.1c.28.1.62.41.81-.06S26,196.26,25.68,196Z" transform="translate(-0.36 -5.13)"/><path class="cls-1" d="M3.09,184.31c-.28.07-.56-.06-.72.19s0,.46.19.62a13.07,13.07,0,0,1,1.12,1.43c.4.59.87.25,1.24.09.53-.22.28-.59.15-1-.27-1.06-1.24-1.09-2-1.34" transform="translate(-0.36 -5.13)"/><path class="cls-2" d="M3.09,184.31c-.28.07-.56-.06-.72.19s0,.46.19.62a13.07,13.07,0,0,1,1.12,1.43c.4.59.87.25,1.24.09.53-.22.28-.59.15-1C4.8,184.59,3.83,184.56,3.09,184.31Z" transform="translate(-0.36 -5.13)"/><path class="cls-1" d="M138.21,218.64c-.9-.87-2.11-1.56-2.36-2.92-.1-.47-.53-.56-.87-.78-2-1.21-4.41-1.15-6.43-2.23-.31-.19-.65-.5-1-.25s0,.71.16,1a2.84,2.84,0,0,1-.5,3.76,1.17,1.17,0,0,0-.19.31,1.55,1.55,0,0,0,.07,2.11,7,7,0,0,1,1.64,5.58c-.18.53.12.81.59,1a15.35,15.35,0,0,1,2,.86c.59.31.93.16,1-.49.15-1.59,1.36-2.42,2.39-3.39.18-.18.37-.37.62-.21.74.43,1.09-.13,1.49-.53s1-1.06,1.52-1.55c1-1.09.93-1.21-.12-2.2" transform="translate(-0.36 -5.13)"/><path class="cls-2" d="M138.21,218.64c-.9-.87-2.11-1.56-2.36-2.92-.1-.47-.53-.56-.87-.78-2-1.21-4.41-1.15-6.43-2.23-.31-.19-.65-.5-1-.25s0,.71.16,1a2.84,2.84,0,0,1-.5,3.76,1.17,1.17,0,0,0-.19.31,1.55,1.55,0,0,0,.07,2.11,7,7,0,0,1,1.64,5.58c-.18.53.12.81.59,1a15.35,15.35,0,0,1,2,.86c.59.31.93.16,1-.49.15-1.59,1.36-2.42,2.39-3.39.18-.18.37-.37.62-.21.74.43,1.09-.13,1.49-.53s1-1.06,1.52-1.55C139.32,219.75,139.26,219.63,138.21,218.64Z" transform="translate(-0.36 -5.13)"/><path class="cls-1" d="M126.1,207.34c-1.14-.37-2.08-1.52-3.38-1.24a2.57,2.57,0,0,1-2.23-.41c-.56-.37-1.56.13-1.43.75s.53,1.71,1.08,1.71c1.4,0,1.4,1,1.8,1.86.16.31.19.87.81.56.81-.38,1.65-.62,2.39-1.06a1.62,1.62,0,0,0,1.06-1.77s0-.37-.1-.4" transform="translate(-0.36 -5.13)"/><path class="cls-2" d="M126.1,207.34c-1.14-.37-2.08-1.52-3.38-1.24a2.57,2.57,0,0,1-2.23-.41c-.56-.37-1.56.13-1.43.75s.53,1.71,1.08,1.71c1.4,0,1.4,1,1.8,1.86.16.31.19.87.81.56.81-.38,1.65-.62,2.39-1.06a1.62,1.62,0,0,0,1.06-1.77S126.23,207.37,126.1,207.34Z" transform="translate(-0.36 -5.13)"/><path class="cls-1" d="M109.38,203.15c-1.28-.68-1.59-2.14-2.61-3-.65-.56-.87-.59-1.15.28-.12.4,0,1.21-.87,1-.34-.09-.81-.34-1,0s.18.71.34,1.05.53.87.71,1.37c.38,1.06,1.21,1.21,2.27,1.3a5.82,5.82,0,0,0,2-.68c.52-.25.8-1,.28-1.21" transform="translate(-0.36 -5.13)"/><path class="cls-2" d="M109.38,203.15c-1.28-.68-1.59-2.14-2.61-3-.65-.56-.87-.59-1.15.28-.12.4,0,1.21-.87,1-.34-.09-.81-.34-1,0s.18.71.34,1.05.53.87.71,1.37c.38,1.06,1.21,1.21,2.27,1.3a5.82,5.82,0,0,0,2-.68C109.62,204.11,109.9,203.4,109.38,203.15Z" transform="translate(-0.36 -5.13)"/><path class="cls-1" d="M117.82,204c-.47.06-.94.28-1.34-.19s-.59-.56-.87,0c-.18.35-.49.19-.74.16-1.74-.25-1.74-.25-2.36,1.83,1.95-.31,3.91.19,5.68-.59.28-.12.87-.19.71-.65a.93.93,0,0,0-1.08-.59" transform="translate(-0.36 -5.13)"/><path class="cls-2" d="M117.82,204c-.47.06-.94.28-1.34-.19s-.59-.56-.87,0c-.18.35-.49.19-.74.16-1.74-.25-1.74-.25-2.36,1.83,1.95-.31,3.91.19,5.68-.59.28-.12.87-.19.71-.65A.93.93,0,0,0,117.82,204Z" transform="translate(-0.36 -5.13)"/><path class="cls-1" d="M91.28,195.73c-1.3-.18-1.92.47-2.48,2.3-.34,1.24.87.81,1.24,1.21a.74.74,0,0,0,.44.19c1.7.68,2.67,0,2.7-1.93a2.07,2.07,0,0,0-.44-1.58c-.4-.65-1-.12-1.46-.19" transform="translate(-0.36 -5.13)"/><path class="cls-2" d="M91.28,195.73c-1.3-.18-1.92.47-2.48,2.3-.34,1.24.87.81,1.24,1.21a.74.74,0,0,0,.44.19c1.7.68,2.67,0,2.7-1.93a2.07,2.07,0,0,0-.44-1.58C92.34,195.27,91.75,195.8,91.28,195.73Z" transform="translate(-0.36 -5.13)"/><path class="cls-1" d="M116.64,206.81c-.41.16-1-.12-1.18.53a3.32,3.32,0,0,0,1.3,2.08c.87.09,1.24-.56,1.74-1.06,0-.31-1.52-1.67-1.86-1.55" transform="translate(-0.36 -5.13)"/><path class="cls-2" d="M116.64,206.81c-.41.16-1-.12-1.18.53a3.32,3.32,0,0,0,1.3,2.08c.87.09,1.24-.56,1.74-1.06C118.53,208.05,117,206.69,116.64,206.81Z" transform="translate(-0.36 -5.13)"/><path class="cls-1" d="M85.88,198.71c-1.64.41-2,1.65-.8,3.26.43-.53.18-1.08.37-1.55a6.19,6.19,0,0,1,.87-1.24c.09-.16.15-.28,0-.44s-.28-.09-.44,0" transform="translate(-0.36 -5.13)"/><path class="cls-2" d="M85.88,198.71c-1.64.41-2,1.65-.8,3.26.43-.53.18-1.08.37-1.55a6.19,6.19,0,0,1,.87-1.24c.09-.16.15-.28,0-.44S86,198.65,85.88,198.71Z" transform="translate(-0.36 -5.13)"/><path class="cls-1" d="M120.39,209.73a1,1,0,0,0-.87,1c0,.62.53.56.93.59s.94,0,.87-.56-.31-1.05-.93-1" transform="translate(-0.36 -5.13)"/><path class="cls-2" d="M120.39,209.73a1,1,0,0,0-.87,1c0,.62.53.56.93.59s.94,0,.87-.56S121,209.7,120.39,209.73Z" transform="translate(-0.36 -5.13)"/><path class="cls-3" d="M129,100.5a1.45,1.45,0,1,1-1.45-1.45A1.45,1.45,0,0,1,129,100.5" transform="translate(-0.36 -5.13)"/><path class="cls-3" d="M42.7,38.21a1.46,1.46,0,1,1-1.45-1.45,1.45,1.45,0,0,1,1.45,1.45" transform="translate(-0.36 -5.13)"/><path class="cls-3" d="M130.43,94.12A1.46,1.46,0,1,1,129,92.67a1.45,1.45,0,0,1,1.46,1.45" transform="translate(-0.36 -5.13)"/><path class="cls-3" d="M76.13,132.17a1.46,1.46,0,1,1-1.46-1.46,1.45,1.45,0,0,1,1.46,1.46" transform="translate(-0.36 -5.13)"/><path class="cls-3" d="M132.86,103.4A1.46,1.46,0,1,1,131.4,102a1.45,1.45,0,0,1,1.46,1.45" transform="translate(-0.36 -5.13)"/><path class="cls-3" d="M129.43,110.45A1.46,1.46,0,1,1,128,109a1.45,1.45,0,0,1,1.46,1.45" transform="translate(-0.36 -5.13)"/><path class="cls-3" d="M134.31,219.77a1.45,1.45,0,1,1-1.45-1.45,1.45,1.45,0,0,1,1.45,1.45" transform="translate(-0.36 -5.13)"/><path class="cls-3" d="M130.43,137a1.46,1.46,0,1,1-1.46-1.46,1.45,1.45,0,0,1,1.46,1.46" transform="translate(-0.36 -5.13)"/><path class="cls-3" d="M93.88,126.19a1.46,1.46,0,1,1-1.46-1.45,1.45,1.45,0,0,1,1.46,1.45" transform="translate(-0.36 -5.13)"/><path class="cls-3" d="M130.88,99.05a1.46,1.46,0,1,1-1.45-1.45,1.45,1.45,0,0,1,1.45,1.45" transform="translate(-0.36 -5.13)"/></svg>