<svg xmlns="http://www.w3.org/2000/svg" viewBox="0 0 14.96 14.96"><defs><style>.cls-1{fill:#fff;}.cls-2{fill:#787979;}</style></defs><title>question</title><g id="Layer_2" data-name="Layer 2"><g id="question"><circle class="cls-1" cx="7.48" cy="7.48" r="7.48"/><path class="cls-2" d="M5.52,4.26A3.93,3.93,0,0,1,5.9,4a2.38,2.38,0,0,1,.44-.25,2.26,2.26,0,0,1,.52-.17,2.37,2.37,0,0,1,.61-.07,2.53,2.53,0,0,1,.8.13A1.7,1.7,0,0,1,8.89,4a1.59,1.59,0,0,1,.4.58,1.89,1.89,0,0,1,.15.77A1.92,1.92,0,0,1,9.32,6,1.67,1.67,0,0,1,9,6.56,2,2,0,0,1,8.67,7l-.37.3A2.93,2.93,0,0,0,8,7.54a.48.48,0,0,0-.15.31l-.12.79H6.86l-.08-.88a.11.11,0,0,1,0,0v0a.78.78,0,0,1,.11-.41,1.75,1.75,0,0,1,.28-.33,3.65,3.65,0,0,1,.36-.31,2.17,2.17,0,0,0,.36-.32,1.49,1.49,0,0,0,.28-.38,1.08,1.08,0,0,0,.11-.52A.81.81,0,0,0,8.2,5,.61.61,0,0,0,8,4.78a.7.7,0,0,0-.29-.17,1.06,1.06,0,0,0-.37-.06,1.77,1.77,0,0,0-.49.06,2.16,2.16,0,0,0-.34.16,1.53,1.53,0,0,0-.23.15A.38.38,0,0,1,6.12,5a.28.28,0,0,1-.27-.17Zm1,6.42a.87.87,0,0,1,.06-.32A.78.78,0,0,1,7,9.92a.78.78,0,0,1,.6,0,.76.76,0,0,1,.25.18,1,1,0,0,1,.16.26A.88.88,0,0,1,8,11a1,1,0,0,1-.16.26.74.74,0,0,1-.25.17.78.78,0,0,1-.6,0,.74.74,0,0,1-.25-.17A.76.76,0,0,1,6.54,11,.87.87,0,0,1,6.48,10.68Z"/></g></g></svg>