<svg id="Layer_7" data-name="Layer 7" xmlns="http://www.w3.org/2000/svg" viewBox="0 0 74.06 52.53"><defs><style>.cls-1{fill:#797979;}</style></defs><title>world-around-end</title><path class="cls-1" d="M82.84,51.69H59.4v-1H82.84a3,3,0,1,0,0-6.09H74.05v-1h8.79a4,4,0,1,1,0,8.09Z" transform="translate(-12.83 -24.84)"/><path class="cls-1" d="M50.87,51.69h-34a4,4,0,1,1,0-8.09h9.35v1H16.88a3,3,0,1,0,0,6.09h34Z" transform="translate(-12.83 -24.84)"/><polygon class="cls-1" points="35.35 22.82 36.86 26.36 35.35 29.89 43.74 26.36 35.35 22.82"/><path class="cls-1" d="M49.81,24.84A26.27,26.27,0,1,1,23.59,51.2,26.31,26.31,0,0,1,49.81,24.84m2.75,3.09a2.09,2.09,0,0,0,.1.23,5.73,5.73,0,0,0,2.27,2.46c.61.33.81.7.61,1.24a3.33,3.33,0,0,0-.1,2.2,2,2,0,0,1,0,.35c0,.57-.4.9-.91.67a9.54,9.54,0,0,1-1.59-1c-.27-.2-.45-.54-.73-.72a.93.93,0,0,0-.72-.13,1.45,1.45,0,0,0-.44,2.5c.24.2.54.32.78.52a13.19,13.19,0,0,1,1.49,1.4,1.3,1.3,0,0,1-.28,2.21,11.34,11.34,0,0,1-2.34,1.34,6.27,6.27,0,0,0-2.4,1.73c-.59.67-1.29,1.24-1.93,1.87a2.94,2.94,0,0,0-.5.71,6.58,6.58,0,0,0-.29.78c-.21.5-.48.61-1,.4a6.59,6.59,0,0,1-.79-.41,3.31,3.31,0,0,0-3.94.33,2.48,2.48,0,0,0-.68,2.9.92.92,0,0,0,1,.59c.34,0,.68-.1,1-.14.83-.1,1.07.11,1.1.94s.14.88.88,1.07c.23.06.54.13.64.3a26.57,26.57,0,0,1,1.28,2.42.74.74,0,0,1-.14.65.67.67,0,0,1-.63,0,4.27,4.27,0,0,1-1.25-1.05,6.3,6.3,0,0,0-3.24-2.51c-.49-.19-1-.41-1.44-.63a3.53,3.53,0,0,1-2.21-3,10.71,10.71,0,0,0-1.31-4.31,4.34,4.34,0,0,1,.93-5.4A2.6,2.6,0,0,0,37,36.76a4.92,4.92,0,0,1,1-2.44,1.21,1.21,0,0,0-.07-1.55L37,31.51c-1.18,1-2.45,1.93-3.53,3A22.75,22.75,0,0,0,26.72,54a21.9,21.9,0,0,0,6.55,13.5c6.28,6.17,13.82,8.32,22.34,6.22a23.15,23.15,0,0,0,17.54-21c0-.74-.43-1.21-1.09-1a1.8,1.8,0,0,0-.72.63c-.68.87-1.23.85-1.82-.1a2.21,2.21,0,0,1-.18-.34c-.41-.91-.84-1.82-1.22-2.74a9.62,9.62,0,0,1-.78-3.78,9.55,9.55,0,0,0-.19-2,3.74,3.74,0,0,1,.46-3,5.25,5.25,0,0,0,.33-.77c.33-.8.62-.86,1.31-.34a3.25,3.25,0,0,0,.71.31l.1-.17c-.35-.55-.74-1.08-1-1.65-.43-.81-1.26-.91-2-1.19-.31-.11-.48.07-.46.38s.06.55.09.83c0,.54-.31.9-.91.91s-.62-.18-.56-.8a1.25,1.25,0,0,0-.4-1.24,2.31,2.31,0,0,1-.88-1.75,2.13,2.13,0,0,0-1.28-1.85,9.41,9.41,0,0,1-3.19-2.24c-.17-.18-.42-.28-.58-.46s-.41-.56-.62-.84c-.08-.11-.16-.25-.27-.29a22.5,22.5,0,0,0-5.41-1.29" transform="translate(-12.83 -24.84)"/><path class="cls-1" d="M49.42,56.68a10.91,10.91,0,0,1,5.49,2.11c.58.43,1.15.87,1.69,1.35a5.06,5.06,0,0,0,3,1.26,18.17,18.17,0,0,1,2.32.41,1.38,1.38,0,0,1,1,2.06,3.88,3.88,0,0,1-.72,1.1,3.72,3.72,0,0,0-1,1.73,3.08,3.08,0,0,1-1.61,2,9.5,9.5,0,0,0-1.72,1.21A12.36,12.36,0,0,1,54.6,72.4a22,22,0,0,0-5.2,3.31c-.72.66-1.57.51-1.85-.29a1.84,1.84,0,0,1,0-1.09,15.75,15.75,0,0,1,.65-1.54,20.3,20.3,0,0,0,1-2.56,2.26,2.26,0,0,0-.93-2.55l-.31-.24a6.94,6.94,0,0,1-1.34-9.52l0-.05a3.14,3.14,0,0,1,2.82-1.19" transform="translate(-12.83 -24.84)"/><path class="cls-1" d="M62.22,51.1a2.83,2.83,0,1,1-2.82-2.82,2.83,2.83,0,0,1,2.82,2.82" transform="translate(-12.83 -24.84)"/></svg>