<svg id="Layer_8" data-name="Layer 8" xmlns="http://www.w3.org/2000/svg" viewBox="0 0 51.94 51.92"><defs><style>.cls-1{fill:#797979;}</style></defs><title>world</title><path class="cls-1" d="M50.12,25.45A26,26,0,1,1,24.2,51.51,26,26,0,0,1,50.12,25.45m2.71,3.05a2.09,2.09,0,0,0,.1.23,5.71,5.71,0,0,0,2.24,2.43c.61.33.81.7.61,1.22a3.36,3.36,0,0,0-.1,2.19,1.83,1.83,0,0,1,0,.34c0,.56-.39.89-.9.66a9.32,9.32,0,0,1-1.57-1c-.27-.2-.45-.53-.72-.71a.93.93,0,0,0-.72-.13,1.43,1.43,0,0,0-.43,2.47c.24.19.54.31.77.51a13,13,0,0,1,1.48,1.39,1.29,1.29,0,0,1-.29,2.19A10.92,10.92,0,0,1,51,41.59a6.17,6.17,0,0,0-2.37,1.72c-.59.66-1.28,1.23-1.91,1.85a2.83,2.83,0,0,0-.5.69c-.13.24-.18.53-.29.78-.21.49-.47.61-1,.4a5.68,5.68,0,0,1-.77-.41,3.28,3.28,0,0,0-3.9.33,2.43,2.43,0,0,0-.67,2.86.9.9,0,0,0,1,.59c.34,0,.68-.1,1-.15.83-.09,1.06.11,1.09.93s.14.87.87,1.06c.23.06.53.13.64.3a25.88,25.88,0,0,1,1.26,2.39.74.74,0,0,1-.14.65.65.65,0,0,1-.62,0,4.05,4.05,0,0,1-1.23-1,6.28,6.28,0,0,0-3.21-2.49,14.88,14.88,0,0,1-1.42-.62,3.47,3.47,0,0,1-2.19-3,10.51,10.51,0,0,0-1.29-4.25,4.28,4.28,0,0,1,.92-5.34,2.58,2.58,0,0,0,1.11-1.66,4.79,4.79,0,0,1,1-2.41,1.22,1.22,0,0,0-.06-1.53L37.46,32C36.3,33,35.05,34,34,35a22.49,22.49,0,0,0-6.68,19.19,21.68,21.68,0,0,0,6.47,13.35C40,73.67,47.42,75.8,55.85,73.72A22.85,22.85,0,0,0,73.18,52.94c.06-.74-.42-1.2-1.07-1a1.84,1.84,0,0,0-.72.62c-.67.86-1.21.84-1.79-.09a2.91,2.91,0,0,1-.18-.35c-.41-.9-.83-1.79-1.21-2.71a9.47,9.47,0,0,1-.77-3.73,10.13,10.13,0,0,0-.18-2,3.74,3.74,0,0,1,.44-2.94,5.07,5.07,0,0,0,.34-.75c.32-.79.61-.86,1.29-.34A3.39,3.39,0,0,0,70,40c0-.06.07-.12.11-.17-.35-.54-.74-1.07-1-1.63-.43-.8-1.25-.9-2-1.18-.3-.11-.47.07-.45.38s.07.55.09.82a.81.81,0,0,1-.9.9c-.46,0-.61-.18-.55-.79a1.23,1.23,0,0,0-.4-1.23,2.31,2.31,0,0,1-.87-1.73,2.08,2.08,0,0,0-1.26-1.82,9.38,9.38,0,0,1-3.16-2.22c-.16-.18-.41-.28-.57-.45s-.4-.56-.61-.84c-.08-.1-.16-.24-.27-.28a22.48,22.48,0,0,0-5.35-1.28" transform="translate(-24.2 -25.45)"/><path class="cls-1" d="M49.73,54.2a10.85,10.85,0,0,1,5.42,2.08c.58.43,1.14.87,1.67,1.34a5.08,5.08,0,0,0,3,1.25,17.69,17.69,0,0,1,2.29.4,1.36,1.36,0,0,1,1,2,4.16,4.16,0,0,1-.72,1.08,3.72,3.72,0,0,0-1,1.71,3.06,3.06,0,0,1-1.6,2A8.32,8.32,0,0,0,58,67.35a12.84,12.84,0,0,1-3.51,2.58A20.64,20.64,0,0,0,49.71,73c-.71.66-1.55.5-1.83-.28a1.84,1.84,0,0,1,0-1.09c.15-.52.44-1,.64-1.51a21.67,21.67,0,0,0,1-2.54,2.26,2.26,0,0,0-.92-2.52,13.67,13.67,0,0,1-1.86-1.71,5,5,0,0,1-1.2-5.09A8.39,8.39,0,0,1,47,55.38a3.06,3.06,0,0,1,2.78-1.18" transform="translate(-24.2 -25.45)"/></svg>